<svg width="40" height="40" viewBox="0 0 40 40" fill="none" xmlns="http://www.w3.org/2000/svg">
<g clip-path="url(#clip0_547_39889)">
<path d="M30.6067 28.94L20 39.5467L9.39334 28.94C7.29557 26.8422 5.86698 24.1695 5.28821 21.2598C4.70945 18.3501 5.00651 15.3341 6.14183 12.5932C7.27715 9.85232 9.19974 7.50965 11.6665 5.86144C14.1332 4.21323 17.0333 3.3335 20 3.3335C22.9667 3.3335 25.8668 4.21323 28.3335 5.86144C30.8003 7.50965 32.7229 9.85232 33.8582 12.5932C34.9935 15.3341 35.2906 18.3501 34.7118 21.2598C34.133 24.1695 32.7044 26.8422 30.6067 28.94ZM18.3333 16.6667H13.3333V20H18.3333V25H21.6667V20H26.6667V16.6667H21.6667V11.6667H18.3333V16.6667Z" fill="#EF5238"/>
</g>
<defs>
<clipPath id="clip0_547_39889">
<rect width="40" height="40" fill="white"/>
</clipPath>
</defs>
</svg>
