<svg width="10" height="17" viewBox="0 0 10 17" fill="none" xmlns="http://www.w3.org/2000/svg">
    <g clip-path="url(#clip0_234_805)">
        <path d="M5.09881 8.73409C7.51078 8.73409 9.47705 6.77284 9.47705 4.36704C9.47705 1.96125 7.51078 0 5.09881 0C2.66062 0 0.694336 1.96125 0.694336 4.36704C0.694336 6.77284 2.66062 8.73409 5.09881 8.73409ZM5.09881 2.56269C6.09506 2.56269 6.90778 3.37334 6.90778 4.36704C6.90778 5.36074 6.09506 6.17138 5.09881 6.17138C4.10256 6.17138 3.28983 5.36074 3.28983 4.36704C3.26361 3.37334 4.07634 2.56269 5.09881 2.56269Z" fill="currentColor" />
        <path d="M6.8557 12.3163C7.74708 12.1071 8.61224 11.7672 9.39876 11.2703C10.0018 10.9042 10.1853 10.0936 9.79201 9.49211C9.42497 8.89065 8.61224 8.7076 8.00925 9.09986C6.22649 10.2243 3.89318 10.2243 2.11041 9.09986C1.50742 8.73376 0.720909 8.89065 0.327653 9.49211C-0.0131683 10.0936 0.170351 10.878 0.773343 11.2441C1.55985 11.741 2.42501 12.0809 3.31639 12.2902L0.878211 14.7221C0.380087 15.219 0.380087 16.0296 0.878211 16.5264C1.14038 16.788 1.45499 16.8925 1.79581 16.8925C2.13663 16.8925 2.45124 16.7618 2.71341 16.5264L5.12537 14.1207L7.53734 16.5264C8.03547 17.0232 8.8482 17.0232 9.34632 16.5264C9.84445 16.0296 9.84445 15.219 9.34632 14.7221L6.8557 12.3163Z" fill="currentColor" />
    </g>
    <defs>
        <clipPath id="clip0_234_805">
            <rect width="9.8421" height="17" fill="none" transform="translate(0.157715)" />
        </clipPath>
    </defs>
</svg>