<svg width="17" height="17" viewBox="0 0 17 17" fill="none" xmlns="http://www.w3.org/2000/svg">
    <g clip-path="url(#clip0_547_43265)">
        <path d="M2.5 1.83325H13.17C13.9047 1.83325 14.5 2.43192 14.5 3.15992V13.8399C14.5 14.5726 13.9047 15.1666 13.17 15.1666H2.5V1.83325ZM5.16667 3.16659H3.83333V13.8333H5.16667V3.16659ZM6.5 13.8333H13.1667V3.16659H6.5V13.8333ZM7.83333 11.1666C7.83333 10.6362 8.04405 10.1274 8.41912 9.75237C8.79419 9.3773 9.3029 9.16658 9.83333 9.16658C10.3638 9.16658 10.8725 9.3773 11.2475 9.75237C11.6226 10.1274 11.8333 10.6362 11.8333 11.1666H7.83333ZM9.83333 8.49992C9.47971 8.49992 9.14057 8.35944 8.89052 8.10939C8.64048 7.85935 8.5 7.52021 8.5 7.16658C8.5 6.81296 8.64048 6.47382 8.89052 6.22378C9.14057 5.97373 9.47971 5.83325 9.83333 5.83325C10.187 5.83325 10.5261 5.97373 10.7761 6.22378C11.0262 6.47382 11.1667 6.81296 11.1667 7.16658C11.1667 7.52021 11.0262 7.85935 10.7761 8.10939C10.5261 8.35944 10.187 8.49992 9.83333 8.49992ZM15.1667 4.49992H16.5V7.16658H15.1667V4.49992ZM15.1667 8.49992H16.5V11.1666H15.1667V8.49992Z" fill="currentColor" />
    </g>
    <defs>
        <clipPath id="clip0_547_43265">
            <rect width="16" height="16" fill="currentColor" transform="translate(0.5 0.5)" />
        </clipPath>
    </defs>
</svg>