<svg width="30" height="12" viewBox="0 0 30 12" fill="none" xmlns="http://www.w3.org/2000/svg">
    <g clip-path="url(#clip0_234_816)">
        <path d="M11.36 2.97461C11.3604 2.94596 11.3505 2.91812 11.3322 2.89611C11.3139 2.8741 11.2882 2.85938 11.26 2.85461C11.0277 2.7062 10.7641 2.61377 10.49 2.58461C10.4608 2.59452 10.4292 2.59452 10.4 2.58461C10.3419 2.54465 10.2777 2.51426 10.21 2.49461C9.88 2.42461 9.55 2.36461 9.21 2.32461C8.87 2.28461 8.21 2.22461 7.77 2.21461C7.33 2.20461 6.63 2.21461 6.06 2.21461C5.49 2.21461 4.87 2.29461 4.27 2.35461C3.92126 2.39329 3.58244 2.49494 3.27 2.65461C3.12372 2.69283 2.9917 2.77273 2.89 2.88461C2.81 3.01461 2.67 3.06461 2.59 3.18461C2.49834 3.29646 2.4303 3.42573 2.39 3.56461C2.31833 3.85589 2.28141 4.15464 2.28 4.45461C2.27004 4.96202 2.29007 5.46957 2.34 5.97461C2.42659 6.65582 2.58412 7.32613 2.81 7.97461C2.88283 8.20597 2.97655 8.43023 3.09 8.64461C3.24203 8.97209 3.47631 9.2546 3.77 9.46461C3.89 9.53461 3.97 9.67461 4.09 9.75461C4.27877 9.8839 4.47972 9.99443 4.69 10.0846C4.96284 10.1955 5.24363 10.2858 5.53 10.3546C5.85933 10.4264 6.19362 10.4732 6.53 10.4946C7.0655 10.5446 7.6045 10.5446 8.14 10.4946C8.58277 10.4369 9.01631 10.3226 9.43 10.1546C9.79 9.99461 10.13 9.79461 10.49 9.62461C10.7668 9.48778 10.9864 9.25758 11.11 8.97461C11.32 8.52461 11.52 8.07461 11.71 7.61461C11.8557 7.25583 11.9792 6.88848 12.08 6.51461C12.1732 6.2334 12.2467 5.94604 12.3 5.65461C12.3668 5.28149 12.4036 4.90361 12.41 4.52461C12.4304 4.36694 12.4129 4.20668 12.359 4.05711C12.3051 3.90755 12.2163 3.77299 12.1 3.66461C12.0355 3.50192 11.9357 3.35561 11.8077 3.23627C11.6797 3.11693 11.5268 3.02755 11.36 2.97461ZM27.59 4.50461V4.02461C27.5713 3.80801 27.5095 3.59734 27.4082 3.40499C27.3068 3.21265 27.1681 3.04252 27 2.90461C26.7077 2.67026 26.3656 2.50605 26 2.42461C25.7773 2.34735 25.5452 2.30026 25.31 2.28461C24.76 2.23461 24.21 2.18461 23.67 2.15461C23.13 2.12461 22.5 2.15461 21.92 2.15461C21.5084 2.15472 21.0973 2.1848 20.69 2.24461C20.3272 2.28172 19.9667 2.33847 19.61 2.41461C19.3018 2.49235 19.0007 2.59605 18.71 2.72461C18.4316 2.85091 18.1723 3.01587 17.94 3.21461C17.6883 3.43331 17.5015 3.71697 17.4 4.03461C17.2799 4.53078 17.2799 5.04844 17.4 5.54461C17.4907 6.00094 17.6076 6.45168 17.75 6.89461C17.86 7.25461 18 7.60461 18.14 7.95461C18.2131 8.1522 18.2965 8.3458 18.39 8.53461C18.5069 8.80905 18.673 9.05983 18.88 9.27461C19.171 9.55292 19.5097 9.77649 19.88 9.93461C20.5407 10.2648 21.2624 10.4555 22 10.4946C22.566 10.5346 23.134 10.5346 23.7 10.4946C24.0389 10.4545 24.3736 10.3842 24.7 10.2846C25.221 10.1551 25.6998 9.89331 26.09 9.52461C26.4632 9.19881 26.7457 8.78195 26.91 8.31461C27.06 7.83461 27.19 7.31461 27.3 6.86461C27.3836 6.4849 27.447 6.10103 27.49 5.71461C27.54 5.32461 27.57 4.93461 27.61 4.53461M16.51 6.33461V6.16461C16.3 5.68461 16.09 5.16461 15.87 4.71461C15.87 4.58461 15.73 4.46461 15.69 4.33461C15.65 4.20461 15.44 4.10461 15.27 4.09461C15.0438 4.0746 14.8162 4.0746 14.59 4.09461C14.4927 4.07999 14.3933 4.10001 14.3092 4.15118C14.2251 4.20236 14.1617 4.28144 14.13 4.37461C14.07 4.59461 13.9 4.76461 13.83 4.97461C13.7531 5.20123 13.6595 5.42183 13.55 5.63461L13.28 6.29461C13.19 6.51461 13.09 6.72461 13 6.94461C12.7398 7.57167 12.4426 8.18274 12.11 8.77461C11.9707 9.01523 11.8101 9.24281 11.63 9.45461C11.5074 9.56243 11.3733 9.65634 11.23 9.73461L11.09 9.85461C10.7366 10.1535 10.3243 10.3749 9.88 10.5046C9.66 10.5846 9.45 10.6746 9.22 10.7346C8.94988 10.8033 8.67612 10.8567 8.4 10.8946C7.9987 10.9462 7.5946 10.9729 7.19 10.9746C6.73 10.9746 6.27 10.8846 5.81 10.8446C5.65142 10.8368 5.49399 10.8133 5.34 10.7746C4.91 10.6446 4.49 10.5146 4.08 10.3546C3.71315 10.2122 3.37455 10.0056 3.08 9.74461C2.94901 9.59556 2.83186 9.4349 2.73 9.26461C2.59022 9.03502 2.4698 8.79419 2.37 8.54461C2.25074 8.33245 2.14713 8.11186 2.06 7.88461C1.95 7.62461 1.86 7.35461 1.76 7.09461C1.66 6.83461 1.56 6.55461 1.44 6.28461C1.32 6.01461 1.18 5.53461 1 5.16461C0.82 4.79461 0.8 4.69461 0.69 4.46461L0.56 4.36461C0.438516 4.2087 0.289362 4.0765 0.12 3.97461C0.0904978 3.96511 0.0639496 3.94815 0.0429262 3.92537C0.0219029 3.90259 0.00711682 3.87478 0 3.84461L0 2.44461C0.0101982 2.26365 0.0302277 2.08339 0.06 1.90461C0.0685927 1.87628 0.0840389 1.85051 0.10497 1.82958C0.125902 1.80865 0.151673 1.7932 0.18 1.78461L1.38 1.53461C1.64 1.47461 1.89 1.43461 2.15 1.39461C2.41 1.35461 2.69 1.31461 3 1.28461L4.31 1.11461C4.6046 1.1242 4.89943 1.1041 5.19 1.05461C5.76 1.02461 6.33 0.974609 6.9 0.974609H7.9L8.83 1.04461L9.83 1.16461C10.1676 1.18702 10.5023 1.24058 10.83 1.32461C11.15 1.38461 11.6 1.44461 11.99 1.52461L13.41 1.79461C13.78 1.86461 14.16 1.94461 14.53 1.98461C14.7891 2.01462 15.0509 2.01462 15.31 1.98461C15.81 1.91461 16.31 1.81461 16.82 1.72461L18.08 1.49461L19.22 1.30461L20.11 1.17461C20.3633 1.13461 20.6233 1.10461 20.89 1.08461L22.77 0.974609H23.4L24.4 1.03461L25.46 1.11461C25.812 1.13484 26.1625 1.17491 26.51 1.23461L28.1 1.47461C28.6 1.56461 29.1 1.68461 29.61 1.78461C29.6285 1.78706 29.6463 1.79316 29.6623 1.80257C29.6784 1.81198 29.6924 1.8245 29.7036 1.8394C29.7148 1.8543 29.7229 1.87128 29.7274 1.88934C29.7319 1.90741 29.7328 1.9262 29.73 1.94461L29.79 3.30461V3.87461C29.7757 3.9216 29.7479 3.96334 29.71 3.99461C29.6 4.06461 29.48 4.10461 29.37 4.17461C29.26 4.24461 29.3 4.26461 29.26 4.30461L29.2 4.36461C29.07 4.36461 29.02 4.46461 28.98 4.58461C28.86 4.92461 28.71 5.26461 28.58 5.58461C28.45 5.90461 28.31 6.27461 28.18 6.58461C28.18 6.82461 28.01 6.99461 27.93 7.20461C27.85 7.41461 27.75 7.63461 27.65 7.84461C27.55 8.05461 27.43 8.39461 27.29 8.65461C27.1204 9.1656 26.8165 9.62155 26.41 9.97461C26.2257 10.1357 26.0067 10.2521 25.77 10.3146C25.5869 10.3836 25.4097 10.4672 25.24 10.5646C24.958 10.6735 24.6668 10.7572 24.37 10.8146C23.7632 10.954 23.1426 11.0245 22.52 11.0246C21.7709 11.0166 21.0268 10.9021 20.31 10.6846C19.7293 10.5179 19.1716 10.2794 18.65 9.97461C18.3556 9.77174 18.1069 9.50944 17.92 9.20461L17.67 8.87461C17.6 8.75461 17.56 8.60461 17.5 8.47461L16.99 7.47461C16.83 7.15461 16.74 6.88461 16.62 6.58461L16.51 6.43461" fill="currentColor" />
    </g>
    <defs>
        <clipPath id="clip0_234_816">
            <rect width="29.79" height="10.05" transform="translate(0 0.974609)" />
        </clipPath>
    </defs>
</svg>