<svg width="16" height="16" viewBox="0 0 16 16" fill="none" xmlns="http://www.w3.org/2000/svg">
    <g clip-path="url(#clip0_266_9662)">
        <path d="M12.0203 11.0782L14.8757 13.9328L13.9323 14.8762L11.0777 12.0208C10.0155 12.8723 8.69434 13.3354 7.33301 13.3335C4.02101 13.3335 1.33301 10.6455 1.33301 7.3335C1.33301 4.0215 4.02101 1.3335 7.33301 1.3335C10.645 1.3335 13.333 4.0215 13.333 7.3335C13.3349 8.69483 12.8718 10.016 12.0203 11.0782ZM10.683 10.5835C11.5291 9.71342 12.0016 8.54712 11.9997 7.3335C11.9997 4.75483 9.91101 2.66683 7.33301 2.66683C4.75434 2.66683 2.66634 4.75483 2.66634 7.3335C2.66634 9.9115 4.75434 12.0002 7.33301 12.0002C8.54663 12.0021 9.71293 11.5296 10.583 10.6835L10.683 10.5835Z" fill="currentColor" />
    </g>
    <defs>
        <clipPath id="clip0_266_9662">
            <rect width="16" height="16" fill="none" />
        </clipPath>
    </defs>
</svg>