<svg width="17" height="15" viewBox="0 0 17 15" fill="none" xmlns="http://www.w3.org/2000/svg">
    <path d="M0.71506 7.16707L4.4394 8.57628L5.84861 13.2065C5.94927 13.5085 6.3519 13.6092 6.55322 13.4079L8.66703 11.6967C8.86835 11.4954 9.17032 11.4954 9.37164 11.6967L13.096 14.4144C13.398 14.6158 13.6999 14.4144 13.8006 14.1125L16.5183 1.02694C16.619 0.724966 16.2164 0.422993 15.9144 0.523651L0.71506 6.36181C0.312428 6.46247 0.312428 7.06641 0.71506 7.16707ZM5.6473 7.87168L12.8947 3.44273C12.9953 3.34207 13.1966 3.54339 12.9953 3.64405L7.05651 9.07957C6.85519 9.28089 6.75453 9.58286 6.65387 9.78418L6.45256 11.3947C6.45256 11.596 6.15059 11.596 6.04993 11.3947L5.24467 8.67694C5.24467 8.37497 5.34532 7.97233 5.6473 7.87168Z" fill="currentColor" />
</svg>