<svg width="16" height="17" viewBox="0 0 16 17" fill="none" xmlns="http://www.w3.org/2000/svg">
    <g clip-path="url(#clip0_234_810)">
        <path d="M9.33317 10.0026V11.396C8.72979 11.1826 8.08402 11.1172 7.45011 11.2052C6.81619 11.2931 6.21264 11.5319 5.69012 11.9014C5.16761 12.271 4.7414 12.7605 4.44728 13.3289C4.15316 13.8973 3.99972 14.528 3.99984 15.168L2.6665 15.1673C2.6663 14.3532 2.85245 13.5499 3.2107 12.8189C3.56895 12.0879 4.0898 11.4486 4.73332 10.95C5.37684 10.4514 6.12595 10.1067 6.92327 9.9424C7.72059 9.77807 8.54495 9.79845 9.33317 10.002V10.0026ZM7.99984 9.16797C5.78984 9.16797 3.99984 7.37797 3.99984 5.16797C3.99984 2.95797 5.78984 1.16797 7.99984 1.16797C10.2098 1.16797 11.9998 2.95797 11.9998 5.16797C11.9998 7.37797 10.2098 9.16797 7.99984 9.16797ZM7.99984 7.83463C9.47317 7.83463 10.6665 6.6413 10.6665 5.16797C10.6665 3.69464 9.47317 2.5013 7.99984 2.5013C6.5265 2.5013 5.33317 3.69464 5.33317 5.16797C5.33317 6.6413 6.5265 7.83463 7.99984 7.83463ZM12.9452 11.8346H15.3358V13.168H12.9452L14.1645 14.3866L13.2218 15.33L10.3932 12.5013L13.2218 9.67264L14.1645 10.616L12.9452 11.8346Z" fill="currentColor" />
    </g>
    <defs>
        <clipPath id="clip0_234_810">
            <rect width="16" height="16" fill="currentColor" transform="translate(0 0.5)" />
        </clipPath>
    </defs>
</svg>