<svg width="19" height="11" viewBox="0 0 19 11" fill="none" xmlns="http://www.w3.org/2000/svg">
    <path fill-rule="evenodd" clip-rule="evenodd" d="M18.3569 1.23858C18.489 0.850078 18.3569 0.578125 17.7401 0.578125H15.6841C15.1554 0.578125 14.9205 0.824178 14.7883 1.09613C14.7883 1.09613 13.7456 3.34945 12.2624 4.79987C11.7778 5.22722 11.5722 5.35673 11.3078 5.35673C11.1757 5.35673 10.9847 5.22722 10.9847 4.83872V1.23858C10.9847 0.772377 10.8379 0.578125 10.3973 0.578125H7.16652C6.84344 0.578125 6.63784 0.798277 6.63784 0.992529C6.63784 1.43283 7.37211 1.53644 7.46023 2.75375V5.42148C7.46023 6.00423 7.34274 6.10783 7.07841 6.10783C6.38819 6.10783 4.68467 3.85451 3.68606 1.26448C3.48046 0.785328 3.28955 0.578125 2.76087 0.578125H0.704903C0.117484 0.578125 0 0.824178 0 1.09613C0 1.57529 0.690218 3.95811 3.24549 7.105C4.94901 9.25472 7.34274 10.4202 9.5162 10.4202C10.8232 10.4202 10.9847 10.1612 10.9847 9.72092V8.08921C10.9847 7.5712 11.1022 7.4676 11.5281 7.4676C11.8365 7.4676 12.3505 7.5971 13.5694 8.63311C14.9645 9.86337 15.1995 10.4202 15.9778 10.4202H18.0338C18.6212 10.4202 18.9149 10.1612 18.7387 9.65617C18.5478 9.15112 17.8869 8.41296 17.0058 7.53235C16.5212 7.02729 15.8016 6.49634 15.596 6.22439C15.2876 5.87473 15.3757 5.71933 15.596 5.42148C15.596 5.40853 18.1072 2.30049 18.3569 1.23858Z" fill="currentColor" />
</svg>