<?xml version="1.0" encoding="utf-8"?><svg width="30" height="12" fill="none" xmlns="http://www.w3.org/2000/svg" viewBox="0 0 30 12"><g clip-path="url(#da)"><path d="M11.36 2.975a.12.12 0 0 0-.1-.12 1.78 1.78 0 0 0-.77-.27.14.14 0 0 1-.09 0 .66.66 0 0 0-.19-.09c-.33-.07-.66-.13-1-.17-.34-.04-1-.1-1.44-.11-.44-.01-1.14 0-1.71 0-.57 0-1.19.08-1.79.14a2.9 2.9 0 0 0-1 .3.78.78 0 0 0-.38.23c-.08.13-.22.18-.3.3a1.07 1.07 0 0 0-.2.38 3.8 3.8 0 0 0-.11.89c-.01.507.01 1.015.06 1.52a9.86 9.86 0 0 0 .47 2 4 4 0 0 0 .28.67c.152.327.386.61.68.82.12.07.2.21.32.29.189.129.39.24.6.33.273.11.554.2.84.27.33.071.664.118 1 .14a8.66 8.66 0 0 0 1.61 0 5.222 5.222 0 0 0 1.29-.34c.36-.16.7-.36 1.06-.53a1.31 1.31 0 0 0 .62-.65c.21-.45.41-.9.6-1.36.146-.36.27-.727.37-1.1.093-.282.167-.569.22-.86.067-.374.104-.751.11-1.13a1 1 0 0 0-.31-.86 1.18 1.18 0 0 0-.74-.69Zm16.23 1.53v-.48a1.63 1.63 0 0 0-.59-1.12 2.45 2.45 0 0 0-1-.48 2.64 2.64 0 0 0-.69-.14c-.55-.05-1.1-.1-1.64-.13-.54-.03-1.17 0-1.75 0-.412 0-.823.03-1.23.09-.363.037-.723.093-1.08.17a5.63 5.63 0 0 0-.9.31 3.25 3.25 0 0 0-.77.49 1.82 1.82 0 0 0-.54.82 3.21 3.21 0 0 0 0 1.51c.09.456.208.907.35 1.35.11.36.25.71.39 1.06.073.197.157.39.25.58.117.274.283.525.49.74.291.278.63.501 1 .66.66.33 1.382.52 2.12.56.566.04 1.134.04 1.7 0 .339-.04.674-.11 1-.21.521-.13 1-.392 1.39-.76a2.87 2.87 0 0 0 .82-1.21c.15-.48.28-1 .39-1.45.084-.38.147-.764.19-1.15.05-.39.08-.78.12-1.18m-11.1 1.8v-.17c-.21-.48-.42-1-.64-1.45 0-.13-.14-.25-.18-.38-.04-.13-.25-.23-.42-.24a3.859 3.859 0 0 0-.68 0 .42.42 0 0 0-.46.28c-.06.22-.23.39-.3.6-.077.226-.17.447-.28.66l-.27.66c-.09.22-.19.43-.28.65-.26.627-.557 1.238-.89 1.83-.14.24-.3.468-.48.68a2.21 2.21 0 0 1-.4.28l-.14.12a3.31 3.31 0 0 1-1.21.65c-.22.08-.43.17-.66.23a7.42 7.42 0 0 1-.82.16 9.81 9.81 0 0 1-1.21.08c-.46 0-.92-.09-1.38-.13a2.415 2.415 0 0 1-.47-.07c-.43-.13-.85-.26-1.26-.42a3.319 3.319 0 0 1-1-.61 3.27 3.27 0 0 1-.35-.48 4.84 4.84 0 0 1-.36-.72 5 5 0 0 1-.31-.66c-.11-.26-.2-.53-.3-.79-.1-.26-.2-.54-.32-.81s-.26-.75-.44-1.12c-.18-.37-.2-.47-.31-.7l-.13-.1a1.61 1.61 0 0 0-.44-.39.18.18 0 0 1-.12-.13v-1.4a5 5 0 0 1 .06-.54.18.18 0 0 1 .12-.12l1.2-.25c.26-.06.51-.1.77-.14.26-.04.54-.08.85-.11l1.31-.17c.295.01.59-.01.88-.06.57-.03 1.14-.08 1.71-.08h1l.93.07 1 .12a5.49 5.49 0 0 1 1 .16c.32.06.77.12 1.16.2l1.42.27c.37.07.75.15 1.12.19.26.03.52.03.78 0 .5-.07 1-.17 1.51-.26l1.26-.23 1.14-.19.89-.13c.253-.04.513-.07.78-.09l1.88-.11h.63l1 .06 1.06.08c.352.02.703.06 1.05.12l1.59.24c.5.09 1 .21 1.51.31a.14.14 0 0 1 .12.16l.06 1.36v.57a.25.25 0 0 1-.08.12c-.11.07-.23.11-.34.18-.11.07-.07.09-.11.13l-.06.06c-.13 0-.18.1-.22.22-.12.34-.27.68-.4 1-.13.32-.27.69-.4 1 0 .24-.17.41-.25.62-.08.21-.18.43-.28.64-.1.21-.22.55-.36.81a3 3 0 0 1-.88 1.32 1.589 1.589 0 0 1-.64.34c-.183.069-.36.152-.53.25a5.107 5.107 0 0 1-.87.25c-.607.139-1.227.21-1.85.21a7.902 7.902 0 0 1-2.21-.34 7.262 7.262 0 0 1-1.66-.71 2.56 2.56 0 0 1-.73-.77l-.25-.33c-.07-.12-.11-.27-.17-.4l-.51-1c-.16-.32-.25-.59-.37-.89l-.11-.15" fill="currentColor"/></g><defs><clipPath id="da"><path transform="translate(0 .975)" d="M0 0h29.79v10.05H0z"/></clipPath></defs></svg>