<?xml version="1.0" encoding="utf-8"?><svg width="16" height="17" fill="none" xmlns="http://www.w3.org/2000/svg" viewBox="0 0 16 17"><g clip-path="url(#ha)"><path d="M9.333 10.003v1.393A3.998 3.998 0 0 0 4 15.168H2.667a5.333 5.333 0 0 1 6.666-5.166ZM8 9.168c-2.21 0-4-1.79-4-4s1.79-4 4-4 4 1.79 4 4-1.79 4-4 4Zm0-1.333A2.666 2.666 0 1 0 8 2.5a2.666 2.666 0 1 0 0 5.334Zm4.945 4h2.39v1.333h-2.39l1.22 1.219-.943.943-2.829-2.829 2.829-2.828.943.943-1.22 1.219Z" fill="currentColor"/></g><defs><clipPath id="ha"><path fill="currentColor" transform="translate(0 .5)" d="M0 0h16v16H0z"/></clipPath></defs></svg>