<?xml version="1.0" encoding="utf-8"?><svg viewBox="0 0 19 17" xmlns="http://www.w3.org/2000/svg" xmlns:xlink="http://www.w3.org/1999/xlink"><style>:root>svg{display:none}:root>svg:target{display:block}</style><svg fill="none" viewBox="0 0 16 16" id="arrow-long" xmlns="http://www.w3.org/2000/svg"><path d="M10.781 7.333 7.205 3.757l.943-.943L13.333 8l-5.185 5.185-.943-.943 3.576-3.576H2.667V7.333h8.114Z" fill="currentColor"/></svg><svg fill="none" viewBox="0 0 10 17" id="classmates" xmlns="http://www.w3.org/2000/svg"><g clip-path="url(#ba)" fill="currentColor"><path d="M5.099 8.734c2.412 0 4.378-1.961 4.378-4.367C9.477 1.961 7.511 0 5.1 0 2.66 0 .694 1.961.694 4.367c0 2.406 1.967 4.367 4.405 4.367Zm0-6.171c.996 0 1.809.81 1.809 1.804a1.81 1.81 0 0 1-1.81 1.804A1.81 1.81 0 0 1 3.29 4.367c-.026-.994.786-1.804 1.809-1.804ZM6.856 12.316a8.295 8.295 0 0 0 2.543-1.046 1.272 1.272 0 0 0 .393-1.778A1.28 1.28 0 0 0 8.009 9.1a5.58 5.58 0 0 1-5.899 0 1.308 1.308 0 0 0-1.782.392 1.302 1.302 0 0 0 .445 1.752 8.298 8.298 0 0 0 2.543 1.046L.878 14.722a1.276 1.276 0 0 0 0 1.804c.262.262.577.366.918.366.34 0 .655-.13.917-.366l2.412-2.405 2.412 2.405c.498.497 1.311.497 1.81 0a1.276 1.276 0 0 0 0-1.804l-2.491-2.406Z"/></g><defs><clipPath id="ba"><path transform="translate(.158)" d="M0 0h9.842v17H0z"/></clipPath></defs></svg><svg fill="none" viewBox="0 0 17 17" id="contacts-book" xmlns="http://www.w3.org/2000/svg"><g clip-path="url(#ca)"><path d="M2.5 1.833h10.67c.735 0 1.33.599 1.33 1.327v10.68c0 .733-.595 1.327-1.33 1.327H2.5V1.833Zm2.667 1.334H3.833v10.666h1.334V3.167ZM6.5 13.833h6.667V3.167H6.5v10.666Zm1.333-2.666a2 2 0 0 1 4 0h-4Zm2-2.667a1.333 1.333 0 1 1 0-2.667 1.333 1.333 0 0 1 0 2.667Zm5.334-4H16.5v2.667h-1.333V4.5Zm0 4H16.5v2.667h-1.333V8.5Z" fill="currentColor"/></g><defs><clipPath id="ca"><path fill="currentColor" transform="translate(.5 .5)" d="M0 0h16v16H0z"/></clipPath></defs></svg><svg fill="none" viewBox="0 0 16 16" id="search" xmlns="http://www.w3.org/2000/svg"><g clip-path="url(#da)"><path d="m12.02 11.078 2.856 2.855-.944.943-2.854-2.855a6.002 6.002 0 0 1-9.745-4.687c0-3.313 2.688-6 6-6a6.002 6.002 0 0 1 4.687 9.744Zm-1.337-.494a4.665 4.665 0 0 0-3.35-7.917 4.665 4.665 0 0 0-4.667 4.667 4.665 4.665 0 0 0 7.917 3.35l.1-.1Z" fill="currentColor"/></g><defs><clipPath id="da"><path d="M0 0h16v16H0z"/></clipPath></defs></svg><svg fill="none" viewBox="0 0 16 16" id="sound" xmlns="http://www.w3.org/2000/svg"><g clip-path="url(#ea)"><path d="M14 12v2h-1.334v-2h-1.333v-2h4v2h-1.334ZM3.332 12v2H1.999v-2H.666v-2h4v2H3.333Zm4-8V2h1.333v2h1.333v2H6V4h1.334Zm0 3.333h1.333V14H7.333V7.333ZM1.999 8.667V2h1.334v6.667H1.999Zm10.667 0V2h1.333v6.667h-1.333Z" fill="currentColor"/></g><defs><clipPath id="ea"><path fill="currentColor" d="M0 0h16v16H0z"/></clipPath></defs></svg><svg fill="none" viewBox="0 0 17 15" id="telegram" xmlns="http://www.w3.org/2000/svg"><path d="m.715 7.167 3.724 1.41 1.41 4.63c.1.301.503.402.704.2l2.114-1.71a.487.487 0 0 1 .705 0l3.724 2.717c.302.202.604 0 .705-.301l2.717-13.086c.101-.302-.302-.604-.604-.503L.715 6.362c-.403.1-.403.704 0 .805Zm4.932.705 7.248-4.43c.1-.1.302.101.1.202L7.057 9.08c-.202.2-.302.503-.403.704l-.201 1.61c0 .202-.302.202-.403 0l-.805-2.717c0-.302.1-.705.402-.805Z" fill="currentColor"/></svg><svg fill="none" viewBox="0 0 16 17" id="user" xmlns="http://www.w3.org/2000/svg"><g clip-path="url(#ga)"><path d="M9.333 10.003v1.393A3.998 3.998 0 0 0 4 15.168H2.667a5.333 5.333 0 0 1 6.666-5.166ZM8 9.168c-2.21 0-4-1.79-4-4s1.79-4 4-4 4 1.79 4 4-1.79 4-4 4Zm0-1.333A2.666 2.666 0 1 0 8 2.5a2.666 2.666 0 1 0 0 5.334Zm4.945 4h2.39v1.333h-2.39l1.22 1.219-.943.943-2.829-2.829 2.829-2.828.943.943-1.22 1.219Z" fill="currentColor"/></g><defs><clipPath id="ga"><path fill="currentColor" transform="translate(0 .5)" d="M0 0h16v16H0z"/></clipPath></defs></svg><svg fill="none" viewBox="0 0 19 11" id="vk" xmlns="http://www.w3.org/2000/svg"><path fill-rule="evenodd" clip-rule="evenodd" d="M18.357 1.239c.132-.389 0-.66-.617-.66h-2.056c-.529 0-.763.245-.896.517 0 0-1.042 2.253-2.526 3.704-.484.427-.69.557-.954.557-.132 0-.323-.13-.323-.518v-3.6c0-.467-.147-.66-.588-.66h-3.23c-.324 0-.53.22-.53.414 0 .44.735.543.823 1.76v2.668c0 .583-.117.687-.382.687-.69 0-2.393-2.253-3.392-4.844C3.48.785 3.29.578 2.761.578H.705C.117.578 0 .824 0 1.096c0 .48.69 2.862 3.245 6.009 1.704 2.15 4.098 3.315 6.271 3.315 1.307 0 1.469-.259 1.469-.7V8.09c0-.519.117-.622.543-.622.308 0 .822.13 2.041 1.165 1.395 1.23 1.63 1.787 2.409 1.787h2.056c.587 0 .88-.259.705-.764-.191-.505-.852-1.243-1.733-2.124-.485-.505-1.204-1.036-1.41-1.308-.308-.35-.22-.505 0-.803 0-.012 2.511-3.12 2.76-4.182Z" fill="currentColor"/></svg></svg>