<svg width="20" height="20" viewBox="0 0 20 20" fill="none" xmlns="http://www.w3.org/2000/svg">
<g clip-path="url(#clip0_2067_17202)">
<path d="M5.14297 15C5.31514 14.512 5.63442 14.0895 6.0568 13.7906C6.47919 13.4918 6.98387 13.3313 7.5013 13.3313C8.01873 13.3313 8.52342 13.4918 8.9458 13.7906C9.36819 14.0895 9.68747 14.512 9.85964 15H18.3346V16.6667H9.85964C9.68747 17.1546 9.36819 17.5771 8.9458 17.876C8.52342 18.1749 8.01873 18.3354 7.5013 18.3354C6.98387 18.3354 6.47919 18.1749 6.0568 17.876C5.63442 17.5771 5.31514 17.1546 5.14297 16.6667H1.66797V15H5.14297ZM10.143 9.16665C10.3151 8.67871 10.6344 8.25618 11.0568 7.95731C11.4792 7.65844 11.9839 7.49794 12.5013 7.49794C13.0187 7.49794 13.5234 7.65844 13.9458 7.95731C14.3682 8.25618 14.6875 8.67871 14.8596 9.16665H18.3346V10.8333H14.8596C14.6875 11.3213 14.3682 11.7438 13.9458 12.0427C13.5234 12.3415 13.0187 12.502 12.5013 12.502C11.9839 12.502 11.4792 12.3415 11.0568 12.0427C10.6344 11.7438 10.3151 11.3213 10.143 10.8333H1.66797V9.16665H10.143ZM5.14297 3.33332C5.31514 2.84538 5.63442 2.42285 6.0568 2.12398C6.47919 1.82511 6.98387 1.66461 7.5013 1.66461C8.01873 1.66461 8.52342 1.82511 8.9458 2.12398C9.36819 2.42285 9.68747 2.84538 9.85964 3.33332H18.3346V4.99999H9.85964C9.68747 5.48793 9.36819 5.91046 8.9458 6.20933C8.52342 6.5082 8.01873 6.6687 7.5013 6.6687C6.98387 6.6687 6.47919 6.5082 6.0568 6.20933C5.63442 5.91046 5.31514 5.48793 5.14297 4.99999H1.66797V3.33332H5.14297ZM7.5013 4.99999C7.72232 4.99999 7.93428 4.91219 8.09056 4.75591C8.24684 4.59963 8.33464 4.38767 8.33464 4.16665C8.33464 3.94564 8.24684 3.73368 8.09056 3.5774C7.93428 3.42112 7.72232 3.33332 7.5013 3.33332C7.28029 3.33332 7.06833 3.42112 6.91205 3.5774C6.75577 3.73368 6.66797 3.94564 6.66797 4.16665C6.66797 4.38767 6.75577 4.59963 6.91205 4.75591C7.06833 4.91219 7.28029 4.99999 7.5013 4.99999V4.99999ZM12.5013 10.8333C12.7223 10.8333 12.9343 10.7455 13.0906 10.5892C13.2468 10.433 13.3346 10.221 13.3346 9.99999C13.3346 9.77897 13.2468 9.56701 13.0906 9.41073C12.9343 9.25445 12.7223 9.16665 12.5013 9.16665C12.2803 9.16665 12.0683 9.25445 11.912 9.41073C11.7558 9.56701 11.668 9.77897 11.668 9.99999C11.668 10.221 11.7558 10.433 11.912 10.5892C12.0683 10.7455 12.2803 10.8333 12.5013 10.8333V10.8333ZM7.5013 16.6667C7.72232 16.6667 7.93428 16.5789 8.09056 16.4226C8.24684 16.2663 8.33464 16.0543 8.33464 15.8333C8.33464 15.6123 8.24684 15.4003 8.09056 15.2441C7.93428 15.0878 7.72232 15 7.5013 15C7.28029 15 7.06833 15.0878 6.91205 15.2441C6.75577 15.4003 6.66797 15.6123 6.66797 15.8333C6.66797 16.0543 6.75577 16.2663 6.91205 16.4226C7.06833 16.5789 7.28029 16.6667 7.5013 16.6667V16.6667Z" fill="black"/>
</g>
<defs>
<clipPath id="clip0_2067_17202">
<rect width="20" height="20" fill="white"/>
</clipPath>
</defs>
</svg>
