<svg width="43" height="24" viewBox="0 0 43 24" fill="none" xmlns="http://www.w3.org/2000/svg">
<mask id="path-1-inside-1_547_37048" fill="white">
<path fill-rule="evenodd" clip-rule="evenodd" d="M33.9902 19.5988C39.4447 17.6451 43 14.4457 43 10.8302C43 4.88113 33.3741 0.0584717 21.5 0.0584717C9.62588 0.0584717 0 4.88113 0 10.8302C0 16.7792 9.62588 21.6019 21.5 21.6019C24.0511 21.6019 26.4984 21.3793 28.7688 20.9707L34.1186 23.9411L33.9902 19.5988Z"/>
</mask>
<path d="M33.9902 19.5988L33.653 18.6574L32.9692 18.9023L32.9907 19.6284L33.9902 19.5988ZM28.7688 20.9707L29.2542 20.0965L28.9425 19.9234L28.5917 19.9866L28.7688 20.9707ZM34.1186 23.9411L33.6332 24.8154L35.1701 25.6687L35.1182 23.9116L34.1186 23.9411ZM42 10.8302C42 12.286 41.2882 13.7445 39.8509 15.1136C38.4102 16.4858 36.2926 17.7119 33.653 18.6574L34.3274 20.5403C37.1423 19.532 39.5296 18.1816 41.2302 16.5618C42.9341 14.9388 44 12.9899 44 10.8302H42ZM21.5 1.05847C27.3152 1.05847 32.5304 2.24152 36.2549 4.1075C40.0385 6.00316 42 8.43743 42 10.8302H44C44 7.2739 41.1485 4.3223 37.1507 2.31937C33.0937 0.286756 27.5589 -0.941528 21.5 -0.941528V1.05847ZM1 10.8302C1 8.43743 2.96146 6.00316 6.74514 4.1075C10.4696 2.24152 15.6848 1.05847 21.5 1.05847V-0.941528C15.4411 -0.941528 9.9063 0.286756 5.84927 2.31937C1.85148 4.3223 -1 7.2739 -1 10.8302H1ZM21.5 20.6019C15.6848 20.6019 10.4696 19.4189 6.74514 17.5529C2.96146 15.6572 1 13.223 1 10.8302H-1C-1 14.3865 1.85148 17.3381 5.84927 19.341C9.9063 21.3736 15.4411 22.6019 21.5 22.6019V20.6019ZM28.5917 19.9866C26.3816 20.3843 23.9936 20.6019 21.5 20.6019V22.6019C24.1086 22.6019 26.6153 22.3743 28.9459 21.9549L28.5917 19.9866ZM34.604 23.0668L29.2542 20.0965L28.2834 21.845L33.6332 24.8154L34.604 23.0668ZM32.9907 19.6284L33.119 23.9707L35.1182 23.9116L34.9898 19.5693L32.9907 19.6284Z" fill="#EF5238" mask="url(#path-1-inside-1_547_37048)"/>
<circle cx="13.4104" cy="11.2295" r="1.42605" stroke="#EF5238"/>
<circle cx="21.1135" cy="11.2295" r="1.42605" stroke="#EF5238"/>
<circle cx="28.8206" cy="11.2295" r="1.42605" stroke="#EF5238"/>
</svg>
