<?xml version="1.0" encoding="utf-8"?><svg width="10" height="17" fill="none" xmlns="http://www.w3.org/2000/svg" viewBox="0 0 10 17"><g clip-path="url(#aa)" fill="currentColor"><path d="M5.099 8.734c2.412 0 4.378-1.961 4.378-4.367C9.477 1.961 7.511 0 5.1 0 2.66 0 .694 1.961.694 4.367c0 2.406 1.967 4.367 4.405 4.367Zm0-6.171c.996 0 1.809.81 1.809 1.804a1.81 1.81 0 0 1-1.81 1.804A1.81 1.81 0 0 1 3.29 4.367c-.026-.994.786-1.804 1.809-1.804ZM6.856 12.316a8.295 8.295 0 0 0 2.543-1.046 1.272 1.272 0 0 0 .393-1.778A1.28 1.28 0 0 0 8.009 9.1a5.58 5.58 0 0 1-5.899 0 1.308 1.308 0 0 0-1.782.392 1.302 1.302 0 0 0 .445 1.752 8.298 8.298 0 0 0 2.543 1.046L.878 14.722a1.276 1.276 0 0 0 0 1.804c.262.262.577.366.918.366.34 0 .655-.13.917-.366l2.412-2.405 2.412 2.405c.498.497 1.311.497 1.81 0a1.276 1.276 0 0 0 0-1.804l-2.491-2.406Z"/></g><defs><clipPath id="aa"><path transform="translate(.158)" d="M0 0h9.842v17H0z"/></clipPath></defs></svg>