<?xml version="1.0" encoding="utf-8"?><svg width="17" height="17" fill="none" xmlns="http://www.w3.org/2000/svg" viewBox="0 0 17 17"><g clip-path="url(#da)"><path d="M2.5 1.833h10.67c.735 0 1.33.599 1.33 1.327v10.68c0 .733-.595 1.327-1.33 1.327H2.5V1.833Zm2.667 1.334H3.833v10.666h1.334V3.167ZM6.5 13.833h6.667V3.167H6.5v10.666Zm1.333-2.666a2 2 0 0 1 4 0h-4Zm2-2.667a1.333 1.333 0 1 1 0-2.667 1.333 1.333 0 0 1 0 2.667Zm5.334-4H16.5v2.667h-1.333V4.5Zm0 4H16.5v2.667h-1.333V8.5Z" fill="currentColor"/></g><defs><clipPath id="da"><path fill="currentColor" transform="translate(.5 .5)" d="M0 0h16v16H0z"/></clipPath></defs></svg>