<?xml version="1.0" encoding="utf-8"?><svg width="16" height="16" fill="none" xmlns="http://www.w3.org/2000/svg" viewBox="0 0 16 16"><g clip-path="url(#da)"><path d="m12.02 11.078 2.856 2.855-.944.943-2.854-2.855a6.002 6.002 0 0 1-9.745-4.687c0-3.313 2.688-6 6-6a6.002 6.002 0 0 1 4.687 9.744Zm-1.337-.494a4.665 4.665 0 0 0-3.35-7.917 4.665 4.665 0 0 0-4.667 4.667 4.665 4.665 0 0 0 7.917 3.35l.1-.1Z" fill="currentColor"/></g><defs><clipPath id="da"><path d="M0 0h16v16H0z"/></clipPath></defs></svg>