<?xml version="1.0" encoding="utf-8"?><svg width="17" height="15" fill="none" xmlns="http://www.w3.org/2000/svg" viewBox="0 0 17 15"><path d="m.715 7.167 3.724 1.41 1.41 4.63c.1.301.503.402.704.2l2.114-1.71a.487.487 0 0 1 .705 0l3.724 2.717c.302.202.604 0 .705-.301l2.717-13.086c.101-.302-.302-.604-.604-.503L.715 6.362c-.403.1-.403.704 0 .805Zm4.932.705 7.248-4.43c.1-.1.302.101.1.202L7.057 9.08c-.202.2-.302.503-.403.704l-.201 1.61c0 .202-.302.202-.403 0l-.805-2.717c0-.302.1-.705.402-.805Z" fill="currentColor"/></svg>