<?xml version="1.0" encoding="utf-8"?><svg width="19" height="11" fill="none" xmlns="http://www.w3.org/2000/svg" viewBox="0 0 19 11"><path fill-rule="evenodd" clip-rule="evenodd" d="M18.357 1.239c.132-.389 0-.66-.617-.66h-2.056c-.529 0-.763.245-.896.517 0 0-1.042 2.253-2.526 3.704-.484.427-.69.557-.954.557-.132 0-.323-.13-.323-.518v-3.6c0-.467-.147-.66-.588-.66h-3.23c-.324 0-.53.22-.53.414 0 .44.735.543.823 1.76v2.668c0 .583-.117.687-.382.687-.69 0-2.393-2.253-3.392-4.844C3.48.785 3.29.578 2.761.578H.705C.117.578 0 .824 0 1.096c0 .48.69 2.862 3.245 6.009 1.704 2.15 4.098 3.315 6.271 3.315 1.307 0 1.469-.259 1.469-.7V8.09c0-.519.117-.622.543-.622.308 0 .822.13 2.041 1.165 1.395 1.23 1.63 1.787 2.409 1.787h2.056c.587 0 .88-.259.705-.764-.191-.505-.852-1.243-1.733-2.124-.485-.505-1.204-1.036-1.41-1.308-.308-.35-.22-.505 0-.803 0-.012 2.511-3.12 2.76-4.182Z" fill="currentColor"/></svg>