<svg width="47" height="47" viewBox="0 0 47 47" fill="none" xmlns="http://www.w3.org/2000/svg"><g clip-path="url(#clip0_2003_46163)"><path d="M1.43526 0.0117188H0.0117188V1.43526H1.43526V0.0117188Z" fill="#623B2A"/><path d="M2.85909 0.0117188H1.43555V1.43526H2.85909V0.0117188Z" fill="#623B2A"/><path d="M4.28194 0.0117188H2.8584V1.43526H4.28194V0.0117188Z" fill="#623B2A"/><path d="M5.70577 0.0117188H4.28223V1.43526H5.70577V0.0117188Z" fill="#623B2A"/><path d="M7.1296 0.0117188H5.70605V1.43526H7.1296V0.0117188Z" fill="#623B2A"/><path d="M8.55343 0.0117188H7.12988V1.43526H8.55343V0.0117188Z" fill="#623B2A"/><path d="M9.97628 0.0117188H8.55273V1.43526H9.97628V0.0117188Z" fill="#623B2A"/><path d="M15.6706 0.0117188H14.2471V1.43526H15.6706V0.0117188Z" fill="#623B2A"/><path d="M18.5183 0.0117188H17.0947V1.43526H18.5183V0.0117188Z" fill="#623B2A"/><path d="M19.9411 0.0117188H18.5176V1.43526H19.9411V0.0117188Z" fill="#623B2A"/><path d="M21.365 0.0117188H19.9414V1.43526H21.365V0.0117188Z" fill="#623B2A"/><path d="M24.2116 0.0117188H22.7881V1.43526H24.2116V0.0117188Z" fill="#623B2A"/><path d="M25.6355 0.0117188H24.2119V1.43526H25.6355V0.0117188Z" fill="#623B2A"/><path d="M28.4831 0.0117188H27.0596V1.43526H28.4831V0.0117188Z" fill="#623B2A"/><path d="M29.906 0.0117188H28.4824V1.43526H29.906V0.0117188Z" fill="#623B2A"/><path d="M31.3298 0.0117188H29.9062V1.43526H31.3298V0.0117188Z" fill="#623B2A"/><path d="M35.6003 0.0117188H34.1768V1.43526H35.6003V0.0117188Z" fill="#623B2A"/><path d="M38.447 0.0117188H37.0234V1.43526H38.447V0.0117188Z" fill="#623B2A"/><path d="M39.8708 0.0117188H38.4473V1.43526H39.8708V0.0117188Z" fill="#623B2A"/><path d="M41.2946 0.0117188H39.8711V1.43526H41.2946V0.0117188Z" fill="#623B2A"/><path d="M42.7185 0.0117188H41.2949V1.43526H42.7185V0.0117188Z" fill="#623B2A"/><path d="M44.1413 0.0117188H42.7178V1.43526H44.1413V0.0117188Z" fill="#623B2A"/><path d="M45.5651 0.0117188H44.1416V1.43526H45.5651V0.0117188Z" fill="#623B2A"/><path d="M46.989 0.0117188H45.5654V1.43526H46.989V0.0117188Z" fill="#623B2A"/><path d="M1.43526 1.43555H0.0117188V2.85909H1.43526V1.43555Z" fill="#623B2A"/><path d="M9.97628 1.43555H8.55273V2.85909H9.97628V1.43555Z" fill="#623B2A"/><path d="M14.2468 1.43555H12.8232V2.85909H14.2468V1.43555Z" fill="#623B2A"/><path d="M17.0944 1.43555H15.6709V2.85909H17.0944V1.43555Z" fill="#623B2A"/><path d="M18.5183 1.43555H17.0947V2.85909H18.5183V1.43555Z" fill="#623B2A"/><path d="M24.2116 1.43555H22.7881V2.85909H24.2116V1.43555Z" fill="#623B2A"/><path d="M25.6355 1.43555H24.2119V2.85909H25.6355V1.43555Z" fill="#623B2A"/><path d="M27.0593 1.43555H25.6357V2.85909H27.0593V1.43555Z" fill="#623B2A"/><path d="M29.906 1.43555H28.4824V2.85909H29.906V1.43555Z" fill="#623B2A"/><path d="M31.3298 1.43555H29.9062V2.85909H31.3298V1.43555Z" fill="#623B2A"/><path d="M32.7536 1.43555H31.3301V2.85909H32.7536V1.43555Z" fill="#623B2A"/><path d="M38.447 1.43555H37.0234V2.85909H38.447V1.43555Z" fill="#623B2A"/><path d="M46.989 1.43555H45.5654V2.85909H46.989V1.43555Z" fill="#623B2A"/><path d="M1.43526 2.8584H0.0117188V4.28194H1.43526V2.8584Z" fill="#623B2A"/><path d="M4.28194 2.8584H2.8584V4.28194H4.28194V2.8584Z" fill="#623B2A"/><path d="M5.70577 2.8584H4.28223V4.28194H5.70577V2.8584Z" fill="#623B2A"/><path d="M7.1296 2.8584H5.70605V4.28194H7.1296V2.8584Z" fill="#623B2A"/><path d="M9.97628 2.8584H8.55273V4.28194H9.97628V2.8584Z" fill="#623B2A"/><path d="M12.8239 2.8584H11.4004V4.28194H12.8239V2.8584Z" fill="#623B2A"/><path d="M18.5183 2.8584H17.0947V4.28194H18.5183V2.8584Z" fill="#623B2A"/><path d="M19.9411 2.8584H18.5176V4.28194H19.9411V2.8584Z" fill="#623B2A"/><path d="M21.365 2.8584H19.9414V4.28194H21.365V2.8584Z" fill="#623B2A"/><path d="M22.7888 2.8584H21.3652V4.28194H22.7888V2.8584Z" fill="#623B2A"/><path d="M24.2116 2.8584H22.7881V4.28194H24.2116V2.8584Z" fill="#623B2A"/><path d="M27.0593 2.8584H25.6357V4.28194H27.0593V2.8584Z" fill="#623B2A"/><path d="M28.4821 2.8584H27.0586V4.28194H28.4821V2.8584Z" fill="#623B2A"/><path d="M31.3298 2.8584H29.9062V4.28194H31.3298V2.8584Z" fill="#623B2A"/><path d="M32.7536 2.8584H31.3301V4.28194H32.7536V2.8584Z" fill="#623B2A"/><path d="M34.1765 2.8584H32.7529V4.28194H34.1765V2.8584Z" fill="#623B2A"/><path d="M38.447 2.8584H37.0234V4.28194H38.447V2.8584Z" fill="#623B2A"/><path d="M41.2946 2.8584H39.8711V4.28194H41.2946V2.8584Z" fill="#623B2A"/><path d="M42.7185 2.8584H41.2949V4.28194H42.7185V2.8584Z" fill="#623B2A"/><path d="M44.1413 2.8584H42.7178V4.28194H44.1413V2.8584Z" fill="#623B2A"/><path d="M46.989 2.8584H45.5654V4.28194H46.989V2.8584Z" fill="#623B2A"/><path d="M1.43526 4.28223H0.0117188V5.70577H1.43526V4.28223Z" fill="#623B2A"/><path d="M4.28194 4.28223H2.8584V5.70577H4.28194V4.28223Z" fill="#623B2A"/><path d="M5.70577 4.28223H4.28223V5.70577H5.70577V4.28223Z" fill="#623B2A"/><path d="M7.1296 4.28223H5.70605V5.70577H7.1296V4.28223Z" fill="#623B2A"/><path d="M9.97628 4.28223H8.55273V5.70577H9.97628V4.28223Z" fill="#623B2A"/><path d="M12.8239 4.28223H11.4004V5.70577H12.8239V4.28223Z" fill="#623B2A"/><path d="M19.9411 4.28223H18.5176V5.70577H19.9411V4.28223Z" fill="#623B2A"/><path d="M22.7888 4.28223H21.3652V5.70577H22.7888V4.28223Z" fill="#623B2A"/><path d="M24.2116 4.28223H22.7881V5.70577H24.2116V4.28223Z" fill="#623B2A"/><path d="M25.6355 4.28223H24.2119V5.70577H25.6355V4.28223Z" fill="#623B2A"/><path d="M38.447 4.28223H37.0234V5.70577H38.447V4.28223Z" fill="#623B2A"/><path d="M41.2946 4.28223H39.8711V5.70577H41.2946V4.28223Z" fill="#623B2A"/><path d="M42.7185 4.28223H41.2949V5.70577H42.7185V4.28223Z" fill="#623B2A"/><path d="M44.1413 4.28223H42.7178V5.70577H44.1413V4.28223Z" fill="#623B2A"/><path d="M46.989 4.28223H45.5654V5.70577H46.989V4.28223Z" fill="#623B2A"/><path d="M1.43526 5.70605H0.0117188V7.1296H1.43526V5.70605Z" fill="#623B2A"/><path d="M4.28194 5.70605H2.8584V7.1296H4.28194V5.70605Z" fill="#623B2A"/><path d="M5.70577 5.70605H4.28223V7.1296H5.70577V5.70605Z" fill="#623B2A"/><path d="M7.1296 5.70605H5.70605V7.1296H7.1296V5.70605Z" fill="#623B2A"/><path d="M9.97628 5.70605H8.55273V7.1296H9.97628V5.70605Z" fill="#623B2A"/><path d="M15.6706 5.70605H14.2471V7.1296H15.6706V5.70605Z" fill="#623B2A"/><path d="M21.365 5.70605H19.9414V7.1296H21.365V5.70605Z" fill="#623B2A"/><path d="M24.2116 5.70605H22.7881V7.1296H24.2116V5.70605Z" fill="#623B2A"/><path d="M25.6355 5.70605H24.2119V7.1296H25.6355V5.70605Z" fill="#623B2A"/><path d="M27.0593 5.70605H25.6357V7.1296H27.0593V5.70605Z" fill="#623B2A"/><path d="M31.3298 5.70605H29.9062V7.1296H31.3298V5.70605Z" fill="#623B2A"/><path d="M32.7536 5.70605H31.3301V7.1296H32.7536V5.70605Z" fill="#623B2A"/><path d="M34.1765 5.70605H32.7529V7.1296H34.1765V5.70605Z" fill="#623B2A"/><path d="M35.6003 5.70605H34.1768V7.1296H35.6003V5.70605Z" fill="#623B2A"/><path d="M38.447 5.70605H37.0234V7.1296H38.447V5.70605Z" fill="#623B2A"/><path d="M41.2946 5.70605H39.8711V7.1296H41.2946V5.70605Z" fill="#623B2A"/><path d="M42.7185 5.70605H41.2949V7.1296H42.7185V5.70605Z" fill="#623B2A"/><path d="M44.1413 5.70605H42.7178V7.1296H44.1413V5.70605Z" fill="#623B2A"/><path d="M46.989 5.70605H45.5654V7.1296H46.989V5.70605Z" fill="#623B2A"/><path d="M1.43526 7.12988H0.0117188V8.55343H1.43526V7.12988Z" fill="#623B2A"/><path d="M9.97628 7.12988H8.55273V8.55343H9.97628V7.12988Z" fill="#623B2A"/><path d="M15.6706 7.12988H14.2471V8.55343H15.6706V7.12988Z" fill="#623B2A"/><path d="M18.5183 7.12988H17.0947V8.55343H18.5183V7.12988Z" fill="#623B2A"/><path d="M19.9411 7.12988H18.5176V8.55343H19.9411V7.12988Z" fill="#623B2A"/><path d="M22.7888 7.12988H21.3652V8.55343H22.7888V7.12988Z" fill="#623B2A"/><path d="M29.906 7.12988H28.4824V8.55343H29.906V7.12988Z" fill="#623B2A"/><path d="M31.3298 7.12988H29.9062V8.55343H31.3298V7.12988Z" fill="#623B2A"/><path d="M34.1765 7.12988H32.7529V8.55343H34.1765V7.12988Z" fill="#623B2A"/><path d="M38.447 7.12988H37.0234V8.55343H38.447V7.12988Z" fill="#623B2A"/><path d="M46.989 7.12988H45.5654V8.55343H46.989V7.12988Z" fill="#623B2A"/><path d="M1.43526 8.55273H0.0117188V9.97628H1.43526V8.55273Z" fill="#623B2A"/><path d="M2.85909 8.55273H1.43555V9.97628H2.85909V8.55273Z" fill="#623B2A"/><path d="M4.28194 8.55273H2.8584V9.97628H4.28194V8.55273Z" fill="#623B2A"/><path d="M5.70577 8.55273H4.28223V9.97628H5.70577V8.55273Z" fill="#623B2A"/><path d="M7.1296 8.55273H5.70605V9.97628H7.1296V8.55273Z" fill="#623B2A"/><path d="M8.55343 8.55273H7.12988V9.97628H8.55343V8.55273Z" fill="#623B2A"/><path d="M9.97628 8.55273H8.55273V9.97628H9.97628V8.55273Z" fill="#623B2A"/><path d="M12.8239 8.55273H11.4004V9.97628H12.8239V8.55273Z" fill="#623B2A"/><path d="M15.6706 8.55273H14.2471V9.97628H15.6706V8.55273Z" fill="#623B2A"/><path d="M18.5183 8.55273H17.0947V9.97628H18.5183V8.55273Z" fill="#623B2A"/><path d="M21.365 8.55273H19.9414V9.97628H21.365V8.55273Z" fill="#623B2A"/><path d="M24.2116 8.55273H22.7881V9.97628H24.2116V8.55273Z" fill="#623B2A"/><path d="M27.0593 8.55273H25.6357V9.97628H27.0593V8.55273Z" fill="#623B2A"/><path d="M29.906 8.55273H28.4824V9.97628H29.906V8.55273Z" fill="#623B2A"/><path d="M32.7536 8.55273H31.3301V9.97628H32.7536V8.55273Z" fill="#623B2A"/><path d="M35.6003 8.55273H34.1768V9.97628H35.6003V8.55273Z" fill="#623B2A"/><path d="M38.447 8.55273H37.0234V9.97628H38.447V8.55273Z" fill="#623B2A"/><path d="M39.8708 8.55273H38.4473V9.97628H39.8708V8.55273Z" fill="#623B2A"/><path d="M41.2946 8.55273H39.8711V9.97628H41.2946V8.55273Z" fill="#623B2A"/><path d="M42.7185 8.55273H41.2949V9.97628H42.7185V8.55273Z" fill="#623B2A"/><path d="M44.1413 8.55273H42.7178V9.97628H44.1413V8.55273Z" fill="#623B2A"/><path d="M45.5651 8.55273H44.1416V9.97628H45.5651V8.55273Z" fill="#623B2A"/><path d="M46.989 8.55273H45.5654V9.97628H46.989V8.55273Z" fill="#623B2A"/><path d="M14.2468 9.97656H12.8232V11.4001H14.2468V9.97656Z" fill="#623B2A"/><path d="M15.6706 9.97656H14.2471V11.4001H15.6706V9.97656Z" fill="#623B2A"/><path d="M19.9411 9.97656H18.5176V11.4001H19.9411V9.97656Z" fill="#623B2A"/><path d="M22.7888 9.97656H21.3652V11.4001H22.7888V9.97656Z" fill="#623B2A"/><path d="M24.2116 9.97656H22.7881V11.4001H24.2116V9.97656Z" fill="#623B2A"/><path d="M25.6355 9.97656H24.2119V11.4001H25.6355V9.97656Z" fill="#623B2A"/><path d="M27.0593 9.97656H25.6357V11.4001H27.0593V9.97656Z" fill="#623B2A"/><path d="M31.3298 9.97656H29.9062V11.4001H31.3298V9.97656Z" fill="#623B2A"/><path d="M35.6003 9.97656H34.1768V11.4001H35.6003V9.97656Z" fill="#623B2A"/><path d="M5.70577 11.4004H4.28223V12.8239H5.70577V11.4004Z" fill="#623B2A"/><path d="M7.1296 11.4004H5.70605V12.8239H7.1296V11.4004Z" fill="#623B2A"/><path d="M9.97628 11.4004H8.55273V12.8239H9.97628V11.4004Z" fill="#623B2A"/><path d="M11.4001 11.4004H9.97656V12.8239H11.4001V11.4004Z" fill="#623B2A"/><path d="M15.6706 11.4004H14.2471V12.8239H15.6706V11.4004Z" fill="#623B2A"/><path d="M18.5183 11.4004H17.0947V12.8239H18.5183V11.4004Z" fill="#623B2A"/><path d="M22.7888 11.4004H21.3652V12.8239H22.7888V11.4004Z" fill="#623B2A"/><path d="M27.0593 11.4004H25.6357V12.8239H27.0593V11.4004Z" fill="#623B2A"/><path d="M29.906 11.4004H28.4824V12.8239H29.906V11.4004Z" fill="#623B2A"/><path d="M42.7185 11.4004H41.2949V12.8239H42.7185V11.4004Z" fill="#623B2A"/><path d="M44.1413 11.4004H42.7178V12.8239H44.1413V11.4004Z" fill="#623B2A"/><path d="M1.43526 12.8232H0.0117188V14.2468H1.43526V12.8232Z" fill="#623B2A"/><path d="M2.85909 12.8232H1.43555V14.2468H2.85909V12.8232Z" fill="#623B2A"/><path d="M4.28194 12.8232H2.8584V14.2468H4.28194V12.8232Z" fill="#623B2A"/><path d="M5.70577 12.8232H4.28223V14.2468H5.70577V12.8232Z" fill="#623B2A"/><path d="M7.1296 12.8232H5.70605V14.2468H7.1296V12.8232Z" fill="#623B2A"/><path d="M8.55343 12.8232H7.12988V14.2468H8.55343V12.8232Z" fill="#623B2A"/><path d="M15.6706 12.8232H14.2471V14.2468H15.6706V12.8232Z" fill="#623B2A"/><path d="M17.0944 12.8232H15.6709V14.2468H17.0944V12.8232Z" fill="#623B2A"/><path d="M18.5183 12.8232H17.0947V14.2468H18.5183V12.8232Z" fill="#623B2A"/><path d="M19.9411 12.8232H18.5176V14.2468H19.9411V12.8232Z" fill="#623B2A"/><path d="M22.7888 12.8232H21.3652V14.2468H22.7888V12.8232Z" fill="#623B2A"/><path d="M25.6355 12.8232H24.2119V14.2468H25.6355V12.8232Z" fill="#623B2A"/><path d="M27.0593 12.8232H25.6357V14.2468H27.0593V12.8232Z" fill="#623B2A"/><path d="M28.4821 12.8232H27.0586V14.2468H28.4821V12.8232Z" fill="#623B2A"/><path d="M31.3298 12.8232H29.9062V14.2468H31.3298V12.8232Z" fill="#623B2A"/><path d="M34.1765 12.8232H32.7529V14.2468H34.1765V12.8232Z" fill="#623B2A"/><path d="M38.447 12.8232H37.0234V14.2468H38.447V12.8232Z" fill="#623B2A"/><path d="M39.8708 12.8232H38.4473V14.2468H39.8708V12.8232Z" fill="#623B2A"/><path d="M41.2946 12.8232H39.8711V14.2468H41.2946V12.8232Z" fill="#623B2A"/><path d="M42.7185 12.8232H41.2949V14.2468H42.7185V12.8232Z" fill="#623B2A"/><path d="M44.1413 12.8232H42.7178V14.2468H44.1413V12.8232Z" fill="#623B2A"/><path d="M45.5651 12.8232H44.1416V14.2468H45.5651V12.8232Z" fill="#623B2A"/><path d="M1.43526 14.2471H0.0117188V15.6706H1.43526V14.2471Z" fill="#623B2A"/><path d="M4.28194 14.2471H2.8584V15.6706H4.28194V14.2471Z" fill="#623B2A"/><path d="M9.97628 14.2471H8.55273V15.6706H9.97628V14.2471Z" fill="#623B2A"/><path d="M12.8239 14.2471H11.4004V15.6706H12.8239V14.2471Z" fill="#623B2A"/><path d="M14.2468 14.2471H12.8232V15.6706H14.2468V14.2471Z" fill="#623B2A"/><path d="M18.5183 14.2471H17.0947V15.6706H18.5183V14.2471Z" fill="#623B2A"/><path d="M21.365 14.2471H19.9414V15.6706H21.365V14.2471Z" fill="#623B2A"/><path d="M25.6355 14.2471H24.2119V15.6706H25.6355V14.2471Z" fill="#623B2A"/><path d="M29.906 14.2471H28.4824V15.6706H29.906V14.2471Z" fill="#623B2A"/><path d="M32.7536 14.2471H31.3301V15.6706H32.7536V14.2471Z" fill="#623B2A"/><path d="M34.1765 14.2471H32.7529V15.6706H34.1765V14.2471Z" fill="#623B2A"/><path d="M35.6003 14.2471H34.1768V15.6706H35.6003V14.2471Z" fill="#623B2A"/><path d="M37.0241 14.2471H35.6006V15.6706H37.0241V14.2471Z" fill="#623B2A"/><path d="M38.447 14.2471H37.0234V15.6706H38.447V14.2471Z" fill="#623B2A"/><path d="M41.2946 14.2471H39.8711V15.6706H41.2946V14.2471Z" fill="#623B2A"/><path d="M42.7185 14.2471H41.2949V15.6706H42.7185V14.2471Z" fill="#623B2A"/><path d="M45.5651 14.2471H44.1416V15.6706H45.5651V14.2471Z" fill="#623B2A"/><path d="M7.1296 15.6709H5.70605V17.0944H7.1296V15.6709Z" fill="#623B2A"/><path d="M11.4001 15.6709H9.97656V17.0944H11.4001V15.6709Z" fill="#623B2A"/><path d="M12.8239 15.6709H11.4004V17.0944H12.8239V15.6709Z" fill="#623B2A"/><path d="M14.2468 15.6709H12.8232V17.0944H14.2468V15.6709Z" fill="#623B2A"/><path d="M17.0944 15.6709H15.6709V17.0944H17.0944V15.6709Z" fill="#623B2A"/><path d="M18.5183 15.6709H17.0947V17.0944H18.5183V15.6709Z" fill="#623B2A"/><path d="M24.2116 15.6709H22.7881V17.0944H24.2116V15.6709Z" fill="#623B2A"/><path d="M25.6355 15.6709H24.2119V17.0944H25.6355V15.6709Z" fill="#623B2A"/><path d="M27.0593 15.6709H25.6357V17.0944H27.0593V15.6709Z" fill="#623B2A"/><path d="M29.906 15.6709H28.4824V17.0944H29.906V15.6709Z" fill="#623B2A"/><path d="M31.3298 15.6709H29.9062V17.0944H31.3298V15.6709Z" fill="#623B2A"/><path d="M32.7536 15.6709H31.3301V17.0944H32.7536V15.6709Z" fill="#623B2A"/><path d="M38.447 15.6709H37.0234V17.0944H38.447V15.6709Z" fill="#623B2A"/><path d="M39.8708 15.6709H38.4473V17.0944H39.8708V15.6709Z" fill="#623B2A"/><path d="M41.2946 15.6709H39.8711V17.0944H41.2946V15.6709Z" fill="#623B2A"/><path d="M42.7185 15.6709H41.2949V17.0944H42.7185V15.6709Z" fill="#623B2A"/><path d="M44.1413 15.6709H42.7178V17.0944H44.1413V15.6709Z" fill="#623B2A"/><path d="M46.989 15.6709H45.5654V17.0944H46.989V15.6709Z" fill="#623B2A"/><path d="M2.85909 17.0947H1.43555V18.5183H2.85909V17.0947Z" fill="#623B2A"/><path d="M5.70577 17.0947H4.28223V18.5183H5.70577V17.0947Z" fill="#623B2A"/><path d="M8.55343 17.0947H7.12988V18.5183H8.55343V17.0947Z" fill="#623B2A"/><path d="M9.97628 17.0947H8.55273V18.5183H9.97628V17.0947Z" fill="#623B2A"/><path d="M11.4001 17.0947H9.97656V18.5183H11.4001V17.0947Z" fill="#623B2A"/><path d="M14.2468 17.0947H12.8232V18.5183H14.2468V17.0947Z" fill="#623B2A"/><path d="M21.365 17.0947H19.9414V18.5183H21.365V17.0947Z" fill="#623B2A"/><path d="M22.7888 17.0947H21.3652V18.5183H22.7888V17.0947Z" fill="#623B2A"/><path d="M24.2116 17.0947H22.7881V18.5183H24.2116V17.0947Z" fill="#623B2A"/><path d="M31.3298 17.0947H29.9062V18.5183H31.3298V17.0947Z" fill="#623B2A"/><path d="M34.1765 17.0947H32.7529V18.5183H34.1765V17.0947Z" fill="#623B2A"/><path d="M35.6003 17.0947H34.1768V18.5183H35.6003V17.0947Z" fill="#623B2A"/><path d="M37.0241 17.0947H35.6006V18.5183H37.0241V17.0947Z" fill="#623B2A"/><path d="M38.447 17.0947H37.0234V18.5183H38.447V17.0947Z" fill="#623B2A"/><path d="M45.5651 17.0947H44.1416V18.5183H45.5651V17.0947Z" fill="#623B2A"/><path d="M46.989 17.0947H45.5654V18.5183H46.989V17.0947Z" fill="#623B2A"/><path d="M4.28194 18.5176H2.8584V19.9411H4.28194V18.5176Z" fill="#623B2A"/><path d="M5.70577 18.5176H4.28223V19.9411H5.70577V18.5176Z" fill="#623B2A"/><path d="M8.55343 18.5176H7.12988V19.9411H8.55343V18.5176Z" fill="#623B2A"/><path d="M24.2116 18.5176H22.7881V19.9411H24.2116V18.5176Z" fill="#623B2A"/><path d="M28.4831 18.5176H27.0596V19.9411H28.4831V18.5176Z" fill="#623B2A"/><path d="M37.0241 18.5176H35.6006V19.9411H37.0241V18.5176Z" fill="#623B2A"/><path d="M39.8708 18.5176H38.4473V19.9411H39.8708V18.5176Z" fill="#623B2A"/><path d="M41.2946 18.5176H39.8711V19.9411H41.2946V18.5176Z" fill="#623B2A"/><path d="M42.7185 18.5176H41.2949V19.9411H42.7185V18.5176Z" fill="#623B2A"/><path d="M44.1413 18.5176H42.7178V19.9411H44.1413V18.5176Z" fill="#623B2A"/><path d="M45.5651 18.5176H44.1416V19.9411H45.5651V18.5176Z" fill="#623B2A"/><path d="M46.989 18.5176H45.5654V19.9411H46.989V18.5176Z" fill="#623B2A"/><path d="M1.43526 19.9414H0.0117188V21.365H1.43526V19.9414Z" fill="#623B2A"/><path d="M2.85909 19.9414H1.43555V21.365H2.85909V19.9414Z" fill="#623B2A"/><path d="M7.1296 19.9414H5.70605V21.365H7.1296V19.9414Z" fill="#623B2A"/><path d="M9.97628 19.9414H8.55273V21.365H9.97628V19.9414Z" fill="#623B2A"/><path d="M14.2468 19.9414H12.8232V21.365H14.2468V19.9414Z" fill="#623B2A"/><path d="M18.5183 19.9414H17.0947V21.365H18.5183V19.9414Z" fill="#623B2A"/><path d="M19.9411 19.9414H18.5176V21.365H19.9411V19.9414Z" fill="#623B2A"/><path d="M22.7888 19.9414H21.3652V21.365H22.7888V19.9414Z" fill="#623B2A"/><path d="M24.2116 19.9414H22.7881V21.365H24.2116V19.9414Z" fill="#623B2A"/><path d="M29.906 19.9414H28.4824V21.365H29.906V19.9414Z" fill="#623B2A"/><path d="M32.7536 19.9414H31.3301V21.365H32.7536V19.9414Z" fill="#623B2A"/><path d="M34.1765 19.9414H32.7529V21.365H34.1765V19.9414Z" fill="#623B2A"/><path d="M35.6003 19.9414H34.1768V21.365H35.6003V19.9414Z" fill="#623B2A"/><path d="M39.8708 19.9414H38.4473V21.365H39.8708V19.9414Z" fill="#623B2A"/><path d="M42.7185 19.9414H41.2949V21.365H42.7185V19.9414Z" fill="#623B2A"/><path d="M1.43526 21.3652H0.0117188V22.7888H1.43526V21.3652Z" fill="#623B2A"/><path d="M2.85909 21.3652H1.43555V22.7888H2.85909V21.3652Z" fill="#623B2A"/><path d="M5.70577 21.3652H4.28223V22.7888H5.70577V21.3652Z" fill="#623B2A"/><path d="M7.1296 21.3652H5.70605V22.7888H7.1296V21.3652Z" fill="#623B2A"/><path d="M15.6706 21.3652H14.2471V22.7888H15.6706V21.3652Z" fill="#623B2A"/><path d="M18.5183 21.3652H17.0947V22.7888H18.5183V21.3652Z" fill="#623B2A"/><path d="M21.365 21.3652H19.9414V22.7888H21.365V21.3652Z" fill="#623B2A"/><path d="M28.4821 21.3652H27.0586V22.7888H28.4821V21.3652Z" fill="#623B2A"/><path d="M29.906 21.3652H28.4824V22.7888H29.906V21.3652Z" fill="#623B2A"/><path d="M31.3298 21.3652H29.9062V22.7888H31.3298V21.3652Z" fill="#623B2A"/><path d="M34.1765 21.3652H32.7529V22.7888H34.1765V21.3652Z" fill="#623B2A"/><path d="M41.2946 21.3652H39.8711V22.7888H41.2946V21.3652Z" fill="#623B2A"/><path d="M44.1413 21.3652H42.7178V22.7888H44.1413V21.3652Z" fill="#623B2A"/><path d="M2.85909 22.7881H1.43555V24.2116H2.85909V22.7881Z" fill="#623B2A"/><path d="M7.1296 22.7881H5.70605V24.2116H7.1296V22.7881Z" fill="#623B2A"/><path d="M8.55343 22.7881H7.12988V24.2116H8.55343V22.7881Z" fill="#623B2A"/><path d="M9.97628 22.7881H8.55273V24.2116H9.97628V22.7881Z" fill="#623B2A"/><path d="M11.4001 22.7881H9.97656V24.2116H11.4001V22.7881Z" fill="#623B2A"/><path d="M17.0944 22.7881H15.6709V24.2116H17.0944V22.7881Z" fill="#623B2A"/><path d="M19.9411 22.7881H18.5176V24.2116H19.9411V22.7881Z" fill="#623B2A"/><path d="M24.2116 22.7881H22.7881V24.2116H24.2116V22.7881Z" fill="#623B2A"/><path d="M29.906 22.7881H28.4824V24.2116H29.906V22.7881Z" fill="#623B2A"/><path d="M34.1765 22.7881H32.7529V24.2116H34.1765V22.7881Z" fill="#623B2A"/><path d="M35.6003 22.7881H34.1768V24.2116H35.6003V22.7881Z" fill="#623B2A"/><path d="M38.447 22.7881H37.0234V24.2116H38.447V22.7881Z" fill="#623B2A"/><path d="M41.2946 22.7881H39.8711V24.2116H41.2946V22.7881Z" fill="#623B2A"/><path d="M42.7185 22.7881H41.2949V24.2116H42.7185V22.7881Z" fill="#623B2A"/><path d="M1.43526 24.2119H0.0117188V25.6355H1.43526V24.2119Z" fill="#623B2A"/><path d="M4.28194 24.2119H2.8584V25.6355H4.28194V24.2119Z" fill="#623B2A"/><path d="M5.70577 24.2119H4.28223V25.6355H5.70577V24.2119Z" fill="#623B2A"/><path d="M11.4001 24.2119H9.97656V25.6355H11.4001V24.2119Z" fill="#623B2A"/><path d="M12.8239 24.2119H11.4004V25.6355H12.8239V24.2119Z" fill="#623B2A"/><path d="M14.2468 24.2119H12.8232V25.6355H14.2468V24.2119Z" fill="#623B2A"/><path d="M15.6706 24.2119H14.2471V25.6355H15.6706V24.2119Z" fill="#623B2A"/><path d="M17.0944 24.2119H15.6709V25.6355H17.0944V24.2119Z" fill="#623B2A"/><path d="M18.5183 24.2119H17.0947V25.6355H18.5183V24.2119Z" fill="#623B2A"/><path d="M21.365 24.2119H19.9414V25.6355H21.365V24.2119Z" fill="#623B2A"/><path d="M22.7888 24.2119H21.3652V25.6355H22.7888V24.2119Z" fill="#623B2A"/><path d="M27.0593 24.2119H25.6357V25.6355H27.0593V24.2119Z" fill="#623B2A"/><path d="M28.4831 24.2119H27.0596V25.6355H28.4831V24.2119Z" fill="#623B2A"/><path d="M32.7536 24.2119H31.3301V25.6355H32.7536V24.2119Z" fill="#623B2A"/><path d="M34.1765 24.2119H32.7529V25.6355H34.1765V24.2119Z" fill="#623B2A"/><path d="M35.6003 24.2119H34.1768V25.6355H35.6003V24.2119Z" fill="#623B2A"/><path d="M37.0241 24.2119H35.6006V25.6355H37.0241V24.2119Z" fill="#623B2A"/><path d="M42.7185 24.2119H41.2949V25.6355H42.7185V24.2119Z" fill="#623B2A"/><path d="M44.1413 24.2119H42.7178V25.6355H44.1413V24.2119Z" fill="#623B2A"/><path d="M46.989 24.2119H45.5654V25.6355H46.989V24.2119Z" fill="#623B2A"/><path d="M2.85909 25.6357H1.43555V27.0593H2.85909V25.6357Z" fill="#623B2A"/><path d="M5.70577 25.6357H4.28223V27.0593H5.70577V25.6357Z" fill="#623B2A"/><path d="M7.1296 25.6357H5.70605V27.0593H7.1296V25.6357Z" fill="#623B2A"/><path d="M8.55343 25.6357H7.12988V27.0593H8.55343V25.6357Z" fill="#623B2A"/><path d="M9.97628 25.6357H8.55273V27.0593H9.97628V25.6357Z" fill="#623B2A"/><path d="M11.4001 25.6357H9.97656V27.0593H11.4001V25.6357Z" fill="#623B2A"/><path d="M12.8239 25.6357H11.4004V27.0593H12.8239V25.6357Z" fill="#623B2A"/><path d="M15.6706 25.6357H14.2471V27.0593H15.6706V25.6357Z" fill="#623B2A"/><path d="M18.5183 25.6357H17.0947V27.0593H18.5183V25.6357Z" fill="#623B2A"/><path d="M22.7888 25.6357H21.3652V27.0593H22.7888V25.6357Z" fill="#623B2A"/><path d="M24.2116 25.6357H22.7881V27.0593H24.2116V25.6357Z" fill="#623B2A"/><path d="M25.6355 25.6357H24.2119V27.0593H25.6355V25.6357Z" fill="#623B2A"/><path d="M27.0593 25.6357H25.6357V27.0593H27.0593V25.6357Z" fill="#623B2A"/><path d="M34.1765 25.6357H32.7529V27.0593H34.1765V25.6357Z" fill="#623B2A"/><path d="M37.0241 25.6357H35.6006V27.0593H37.0241V25.6357Z" fill="#623B2A"/><path d="M38.447 25.6357H37.0234V27.0593H38.447V25.6357Z" fill="#623B2A"/><path d="M39.8708 25.6357H38.4473V27.0593H39.8708V25.6357Z" fill="#623B2A"/><path d="M44.1413 25.6357H42.7178V27.0593H44.1413V25.6357Z" fill="#623B2A"/><path d="M1.43526 27.0596H0.0117188V28.4831H1.43526V27.0596Z" fill="#623B2A"/><path d="M4.28194 27.0596H2.8584V28.4831H4.28194V27.0596Z" fill="#623B2A"/><path d="M7.1296 27.0596H5.70605V28.4831H7.1296V27.0596Z" fill="#623B2A"/><path d="M12.8239 27.0596H11.4004V28.4831H12.8239V27.0596Z" fill="#623B2A"/><path d="M14.2468 27.0596H12.8232V28.4831H14.2468V27.0596Z" fill="#623B2A"/><path d="M17.0944 27.0596H15.6709V28.4831H17.0944V27.0596Z" fill="#623B2A"/><path d="M19.9411 27.0596H18.5176V28.4831H19.9411V27.0596Z" fill="#623B2A"/><path d="M21.365 27.0596H19.9414V28.4831H21.365V27.0596Z" fill="#623B2A"/><path d="M28.4821 27.0596H27.0586V28.4831H28.4821V27.0596Z" fill="#623B2A"/><path d="M31.3298 27.0596H29.9062V28.4831H31.3298V27.0596Z" fill="#623B2A"/><path d="M34.1765 27.0596H32.7529V28.4831H34.1765V27.0596Z" fill="#623B2A"/><path d="M37.0241 27.0596H35.6006V28.4831H37.0241V27.0596Z" fill="#623B2A"/><path d="M38.447 27.0596H37.0234V28.4831H38.447V27.0596Z" fill="#623B2A"/><path d="M39.8708 27.0596H38.4473V28.4831H39.8708V27.0596Z" fill="#623B2A"/><path d="M42.7185 27.0596H41.2949V28.4831H42.7185V27.0596Z" fill="#623B2A"/><path d="M45.5651 27.0596H44.1416V28.4831H45.5651V27.0596Z" fill="#623B2A"/><path d="M2.85909 28.4824H1.43555V29.906H2.85909V28.4824Z" fill="#623B2A"/><path d="M4.28194 28.4824H2.8584V29.906H4.28194V28.4824Z" fill="#623B2A"/><path d="M5.70577 28.4824H4.28223V29.906H5.70577V28.4824Z" fill="#623B2A"/><path d="M9.97628 28.4824H8.55273V29.906H9.97628V28.4824Z" fill="#623B2A"/><path d="M11.4001 28.4824H9.97656V29.906H11.4001V28.4824Z" fill="#623B2A"/><path d="M15.6706 28.4824H14.2471V29.906H15.6706V28.4824Z" fill="#623B2A"/><path d="M17.0944 28.4824H15.6709V29.906H17.0944V28.4824Z" fill="#623B2A"/><path d="M19.9411 28.4824H18.5176V29.906H19.9411V28.4824Z" fill="#623B2A"/><path d="M22.7888 28.4824H21.3652V29.906H22.7888V28.4824Z" fill="#623B2A"/><path d="M24.2116 28.4824H22.7881V29.906H24.2116V28.4824Z" fill="#623B2A"/><path d="M25.6355 28.4824H24.2119V29.906H25.6355V28.4824Z" fill="#623B2A"/><path d="M27.0593 28.4824H25.6357V29.906H27.0593V28.4824Z" fill="#623B2A"/><path d="M31.3298 28.4824H29.9062V29.906H31.3298V28.4824Z" fill="#623B2A"/><path d="M35.6003 28.4824H34.1768V29.906H35.6003V28.4824Z" fill="#623B2A"/><path d="M37.0241 28.4824H35.6006V29.906H37.0241V28.4824Z" fill="#623B2A"/><path d="M44.1413 28.4824H42.7178V29.906H44.1413V28.4824Z" fill="#623B2A"/><path d="M45.5651 28.4824H44.1416V29.906H45.5651V28.4824Z" fill="#623B2A"/><path d="M1.43526 29.9062H0.0117188V31.3298H1.43526V29.9062Z" fill="#623B2A"/><path d="M2.85909 29.9062H1.43555V31.3298H2.85909V29.9062Z" fill="#623B2A"/><path d="M5.70577 29.9062H4.28223V31.3298H5.70577V29.9062Z" fill="#623B2A"/><path d="M7.1296 29.9062H5.70605V31.3298H7.1296V29.9062Z" fill="#623B2A"/><path d="M8.55343 29.9062H7.12988V31.3298H8.55343V29.9062Z" fill="#623B2A"/><path d="M14.2468 29.9062H12.8232V31.3298H14.2468V29.9062Z" fill="#623B2A"/><path d="M15.6706 29.9062H14.2471V31.3298H15.6706V29.9062Z" fill="#623B2A"/><path d="M18.5183 29.9062H17.0947V31.3298H18.5183V29.9062Z" fill="#623B2A"/><path d="M19.9411 29.9062H18.5176V31.3298H19.9411V29.9062Z" fill="#623B2A"/><path d="M21.365 29.9062H19.9414V31.3298H21.365V29.9062Z" fill="#623B2A"/><path d="M29.906 29.9062H28.4824V31.3298H29.906V29.9062Z" fill="#623B2A"/><path d="M38.447 29.9062H37.0234V31.3298H38.447V29.9062Z" fill="#623B2A"/><path d="M39.8708 29.9062H38.4473V31.3298H39.8708V29.9062Z" fill="#623B2A"/><path d="M42.7185 29.9062H41.2949V31.3298H42.7185V29.9062Z" fill="#623B2A"/><path d="M44.1413 29.9062H42.7178V31.3298H44.1413V29.9062Z" fill="#623B2A"/><path d="M1.43526 31.3301H0.0117188V32.7536H1.43526V31.3301Z" fill="#623B2A"/><path d="M7.1296 31.3301H5.70605V32.7536H7.1296V31.3301Z" fill="#623B2A"/><path d="M9.97628 31.3301H8.55273V32.7536H9.97628V31.3301Z" fill="#623B2A"/><path d="M11.4001 31.3301H9.97656V32.7536H11.4001V31.3301Z" fill="#623B2A"/><path d="M12.8239 31.3301H11.4004V32.7536H12.8239V31.3301Z" fill="#623B2A"/><path d="M14.2468 31.3301H12.8232V32.7536H14.2468V31.3301Z" fill="#623B2A"/><path d="M25.6355 31.3301H24.2119V32.7536H25.6355V31.3301Z" fill="#623B2A"/><path d="M27.0593 31.3301H25.6357V32.7536H27.0593V31.3301Z" fill="#623B2A"/><path d="M32.7536 31.3301H31.3301V32.7536H32.7536V31.3301Z" fill="#623B2A"/><path d="M35.6003 31.3301H34.1768V32.7536H35.6003V31.3301Z" fill="#623B2A"/><path d="M37.0241 31.3301H35.6006V32.7536H37.0241V31.3301Z" fill="#623B2A"/><path d="M38.447 31.3301H37.0234V32.7536H38.447V31.3301Z" fill="#623B2A"/><path d="M39.8708 31.3301H38.4473V32.7536H39.8708V31.3301Z" fill="#623B2A"/><path d="M41.2946 31.3301H39.8711V32.7536H41.2946V31.3301Z" fill="#623B2A"/><path d="M42.7185 31.3301H41.2949V32.7536H42.7185V31.3301Z" fill="#623B2A"/><path d="M45.5651 31.3301H44.1416V32.7536H45.5651V31.3301Z" fill="#623B2A"/><path d="M46.989 31.3301H45.5654V32.7536H46.989V31.3301Z" fill="#623B2A"/><path d="M1.43526 32.7529H0.0117188V34.1765H1.43526V32.7529Z" fill="#623B2A"/><path d="M4.28194 32.7529H2.8584V34.1765H4.28194V32.7529Z" fill="#623B2A"/><path d="M5.70577 32.7529H4.28223V34.1765H5.70577V32.7529Z" fill="#623B2A"/><path d="M7.1296 32.7529H5.70605V34.1765H7.1296V32.7529Z" fill="#623B2A"/><path d="M19.9411 32.7529H18.5176V34.1765H19.9411V32.7529Z" fill="#623B2A"/><path d="M21.365 32.7529H19.9414V34.1765H21.365V32.7529Z" fill="#623B2A"/><path d="M25.6355 32.7529H24.2119V34.1765H25.6355V32.7529Z" fill="#623B2A"/><path d="M27.0593 32.7529H25.6357V34.1765H27.0593V32.7529Z" fill="#623B2A"/><path d="M29.906 32.7529H28.4824V34.1765H29.906V32.7529Z" fill="#623B2A"/><path d="M37.0241 32.7529H35.6006V34.1765H37.0241V32.7529Z" fill="#623B2A"/><path d="M38.447 32.7529H37.0234V34.1765H38.447V32.7529Z" fill="#623B2A"/><path d="M39.8708 32.7529H38.4473V34.1765H39.8708V32.7529Z" fill="#623B2A"/><path d="M41.2946 32.7529H39.8711V34.1765H41.2946V32.7529Z" fill="#623B2A"/><path d="M46.989 32.7529H45.5654V34.1765H46.989V32.7529Z" fill="#623B2A"/><path d="M1.43526 34.1768H0.0117188V35.6003H1.43526V34.1768Z" fill="#623B2A"/><path d="M2.85909 34.1768H1.43555V35.6003H2.85909V34.1768Z" fill="#623B2A"/><path d="M4.28194 34.1768H2.8584V35.6003H4.28194V34.1768Z" fill="#623B2A"/><path d="M7.1296 34.1768H5.70605V35.6003H7.1296V34.1768Z" fill="#623B2A"/><path d="M9.97628 34.1768H8.55273V35.6003H9.97628V34.1768Z" fill="#623B2A"/><path d="M15.6706 34.1768H14.2471V35.6003H15.6706V34.1768Z" fill="#623B2A"/><path d="M18.5183 34.1768H17.0947V35.6003H18.5183V34.1768Z" fill="#623B2A"/><path d="M19.9411 34.1768H18.5176V35.6003H19.9411V34.1768Z" fill="#623B2A"/><path d="M21.365 34.1768H19.9414V35.6003H21.365V34.1768Z" fill="#623B2A"/><path d="M22.7888 34.1768H21.3652V35.6003H22.7888V34.1768Z" fill="#623B2A"/><path d="M25.6355 34.1768H24.2119V35.6003H25.6355V34.1768Z" fill="#623B2A"/><path d="M27.0593 34.1768H25.6357V35.6003H27.0593V34.1768Z" fill="#623B2A"/><path d="M28.4831 34.1768H27.0596V35.6003H28.4831V34.1768Z" fill="#623B2A"/><path d="M29.906 34.1768H28.4824V35.6003H29.906V34.1768Z" fill="#623B2A"/><path d="M35.6003 34.1768H34.1768V35.6003H35.6003V34.1768Z" fill="#623B2A"/><path d="M37.0241 34.1768H35.6006V35.6003H37.0241V34.1768Z" fill="#623B2A"/><path d="M38.447 34.1768H37.0234V35.6003H38.447V34.1768Z" fill="#623B2A"/><path d="M39.8708 34.1768H38.4473V35.6003H39.8708V34.1768Z" fill="#623B2A"/><path d="M41.2946 34.1768H39.8711V35.6003H41.2946V34.1768Z" fill="#623B2A"/><path d="M44.1413 34.1768H42.7178V35.6003H44.1413V34.1768Z" fill="#623B2A"/><path d="M46.989 34.1768H45.5654V35.6003H46.989V34.1768Z" fill="#623B2A"/><path d="M12.8239 35.6006H11.4004V37.0241H12.8239V35.6006Z" fill="#623B2A"/><path d="M14.2468 35.6006H12.8232V37.0241H14.2468V35.6006Z" fill="#623B2A"/><path d="M17.0944 35.6006H15.6709V37.0241H17.0944V35.6006Z" fill="#623B2A"/><path d="M18.5183 35.6006H17.0947V37.0241H18.5183V35.6006Z" fill="#623B2A"/><path d="M19.9411 35.6006H18.5176V37.0241H19.9411V35.6006Z" fill="#623B2A"/><path d="M21.365 35.6006H19.9414V37.0241H21.365V35.6006Z" fill="#623B2A"/><path d="M28.4831 35.6006H27.0596V37.0241H28.4831V35.6006Z" fill="#623B2A"/><path d="M34.1765 35.6006H32.7529V37.0241H34.1765V35.6006Z" fill="#623B2A"/><path d="M35.6003 35.6006H34.1768V37.0241H35.6003V35.6006Z" fill="#623B2A"/><path d="M41.2946 35.6006H39.8711V37.0241H41.2946V35.6006Z" fill="#623B2A"/><path d="M44.1413 35.6006H42.7178V37.0241H44.1413V35.6006Z" fill="#623B2A"/><path d="M1.43526 37.0234H0.0117188V38.447H1.43526V37.0234Z" fill="#623B2A"/><path d="M2.85909 37.0234H1.43555V38.447H2.85909V37.0234Z" fill="#623B2A"/><path d="M4.28194 37.0234H2.8584V38.447H4.28194V37.0234Z" fill="#623B2A"/><path d="M5.70577 37.0234H4.28223V38.447H5.70577V37.0234Z" fill="#623B2A"/><path d="M7.1296 37.0234H5.70605V38.447H7.1296V37.0234Z" fill="#623B2A"/><path d="M8.55343 37.0234H7.12988V38.447H8.55343V37.0234Z" fill="#623B2A"/><path d="M9.97628 37.0234H8.55273V38.447H9.97628V37.0234Z" fill="#623B2A"/><path d="M12.8239 37.0234H11.4004V38.447H12.8239V37.0234Z" fill="#623B2A"/><path d="M15.6706 37.0234H14.2471V38.447H15.6706V37.0234Z" fill="#623B2A"/><path d="M22.7888 37.0234H21.3652V38.447H22.7888V37.0234Z" fill="#623B2A"/><path d="M24.2116 37.0234H22.7881V38.447H24.2116V37.0234Z" fill="#623B2A"/><path d="M25.6355 37.0234H24.2119V38.447H25.6355V37.0234Z" fill="#623B2A"/><path d="M28.4821 37.0234H27.0586V38.447H28.4821V37.0234Z" fill="#623B2A"/><path d="M29.906 37.0234H28.4824V38.447H29.906V37.0234Z" fill="#623B2A"/><path d="M31.3298 37.0234H29.9062V38.447H31.3298V37.0234Z" fill="#623B2A"/><path d="M32.7536 37.0234H31.3301V38.447H32.7536V37.0234Z" fill="#623B2A"/><path d="M35.6003 37.0234H34.1768V38.447H35.6003V37.0234Z" fill="#623B2A"/><path d="M38.447 37.0234H37.0234V38.447H38.447V37.0234Z" fill="#623B2A"/><path d="M41.2946 37.0234H39.8711V38.447H41.2946V37.0234Z" fill="#623B2A"/><path d="M46.989 37.0234H45.5654V38.447H46.989V37.0234Z" fill="#623B2A"/><path d="M1.43526 38.4473H0.0117188V39.8708H1.43526V38.4473Z" fill="#623B2A"/><path d="M9.97628 38.4473H8.55273V39.8708H9.97628V38.4473Z" fill="#623B2A"/><path d="M15.6706 38.4473H14.2471V39.8708H15.6706V38.4473Z" fill="#623B2A"/><path d="M21.365 38.4473H19.9414V39.8708H21.365V38.4473Z" fill="#623B2A"/><path d="M25.6355 38.4473H24.2119V39.8708H25.6355V38.4473Z" fill="#623B2A"/><path d="M34.1765 38.4473H32.7529V39.8708H34.1765V38.4473Z" fill="#623B2A"/><path d="M35.6003 38.4473H34.1768V39.8708H35.6003V38.4473Z" fill="#623B2A"/><path d="M41.2946 38.4473H39.8711V39.8708H41.2946V38.4473Z" fill="#623B2A"/><path d="M42.7185 38.4473H41.2949V39.8708H42.7185V38.4473Z" fill="#623B2A"/><path d="M1.43526 39.8711H0.0117188V41.2946H1.43526V39.8711Z" fill="#623B2A"/><path d="M4.28194 39.8711H2.8584V41.2946H4.28194V39.8711Z" fill="#623B2A"/><path d="M5.70577 39.8711H4.28223V41.2946H5.70577V39.8711Z" fill="#623B2A"/><path d="M7.1296 39.8711H5.70605V41.2946H7.1296V39.8711Z" fill="#623B2A"/><path d="M9.97628 39.8711H8.55273V41.2946H9.97628V39.8711Z" fill="#623B2A"/><path d="M12.8239 39.8711H11.4004V41.2946H12.8239V39.8711Z" fill="#623B2A"/><path d="M17.0944 39.8711H15.6709V41.2946H17.0944V39.8711Z" fill="#623B2A"/><path d="M21.365 39.8711H19.9414V41.2946H21.365V39.8711Z" fill="#623B2A"/><path d="M22.7888 39.8711H21.3652V41.2946H22.7888V39.8711Z" fill="#623B2A"/><path d="M28.4831 39.8711H27.0596V41.2946H28.4831V39.8711Z" fill="#623B2A"/><path d="M29.906 39.8711H28.4824V41.2946H29.906V39.8711Z" fill="#623B2A"/><path d="M31.3298 39.8711H29.9062V41.2946H31.3298V39.8711Z" fill="#623B2A"/><path d="M35.6003 39.8711H34.1768V41.2946H35.6003V39.8711Z" fill="#623B2A"/><path d="M37.0241 39.8711H35.6006V41.2946H37.0241V39.8711Z" fill="#623B2A"/><path d="M38.447 39.8711H37.0234V41.2946H38.447V39.8711Z" fill="#623B2A"/><path d="M39.8708 39.8711H38.4473V41.2946H39.8708V39.8711Z" fill="#623B2A"/><path d="M41.2946 39.8711H39.8711V41.2946H41.2946V39.8711Z" fill="#623B2A"/><path d="M42.7185 39.8711H41.2949V41.2946H42.7185V39.8711Z" fill="#623B2A"/><path d="M46.989 39.8711H45.5654V41.2946H46.989V39.8711Z" fill="#623B2A"/><path d="M1.43526 41.2949H0.0117188V42.7185H1.43526V41.2949Z" fill="#623B2A"/><path d="M4.28194 41.2949H2.8584V42.7185H4.28194V41.2949Z" fill="#623B2A"/><path d="M5.70577 41.2949H4.28223V42.7185H5.70577V41.2949Z" fill="#623B2A"/><path d="M7.1296 41.2949H5.70605V42.7185H7.1296V41.2949Z" fill="#623B2A"/><path d="M9.97628 41.2949H8.55273V42.7185H9.97628V41.2949Z" fill="#623B2A"/><path d="M12.8239 41.2949H11.4004V42.7185H12.8239V41.2949Z" fill="#623B2A"/><path d="M14.2468 41.2949H12.8232V42.7185H14.2468V41.2949Z" fill="#623B2A"/><path d="M17.0944 41.2949H15.6709V42.7185H17.0944V41.2949Z" fill="#623B2A"/><path d="M19.9411 41.2949H18.5176V42.7185H19.9411V41.2949Z" fill="#623B2A"/><path d="M21.365 41.2949H19.9414V42.7185H21.365V41.2949Z" fill="#623B2A"/><path d="M22.7888 41.2949H21.3652V42.7185H22.7888V41.2949Z" fill="#623B2A"/><path d="M25.6355 41.2949H24.2119V42.7185H25.6355V41.2949Z" fill="#623B2A"/><path d="M27.0593 41.2949H25.6357V42.7185H27.0593V41.2949Z" fill="#623B2A"/><path d="M29.906 41.2949H28.4824V42.7185H29.906V41.2949Z" fill="#623B2A"/><path d="M34.1765 41.2949H32.7529V42.7185H34.1765V41.2949Z" fill="#623B2A"/><path d="M37.0241 41.2949H35.6006V42.7185H37.0241V41.2949Z" fill="#623B2A"/><path d="M41.2946 41.2949H39.8711V42.7185H41.2946V41.2949Z" fill="#623B2A"/><path d="M44.1413 41.2949H42.7178V42.7185H44.1413V41.2949Z" fill="#623B2A"/><path d="M45.5651 41.2949H44.1416V42.7185H45.5651V41.2949Z" fill="#623B2A"/><path d="M1.43526 42.7178H0.0117188V44.1413H1.43526V42.7178Z" fill="#623B2A"/><path d="M4.28194 42.7178H2.8584V44.1413H4.28194V42.7178Z" fill="#623B2A"/><path d="M5.70577 42.7178H4.28223V44.1413H5.70577V42.7178Z" fill="#623B2A"/><path d="M7.1296 42.7178H5.70605V44.1413H7.1296V42.7178Z" fill="#623B2A"/><path d="M9.97628 42.7178H8.55273V44.1413H9.97628V42.7178Z" fill="#623B2A"/><path d="M14.2468 42.7178H12.8232V44.1413H14.2468V42.7178Z" fill="#623B2A"/><path d="M17.0944 42.7178H15.6709V44.1413H17.0944V42.7178Z" fill="#623B2A"/><path d="M19.9411 42.7178H18.5176V44.1413H19.9411V42.7178Z" fill="#623B2A"/><path d="M22.7888 42.7178H21.3652V44.1413H22.7888V42.7178Z" fill="#623B2A"/><path d="M24.2116 42.7178H22.7881V44.1413H24.2116V42.7178Z" fill="#623B2A"/><path d="M27.0593 42.7178H25.6357V44.1413H27.0593V42.7178Z" fill="#623B2A"/><path d="M31.3298 42.7178H29.9062V44.1413H31.3298V42.7178Z" fill="#623B2A"/><path d="M32.7536 42.7178H31.3301V44.1413H32.7536V42.7178Z" fill="#623B2A"/><path d="M35.6003 42.7178H34.1768V44.1413H35.6003V42.7178Z" fill="#623B2A"/><path d="M37.0241 42.7178H35.6006V44.1413H37.0241V42.7178Z" fill="#623B2A"/><path d="M38.447 42.7178H37.0234V44.1413H38.447V42.7178Z" fill="#623B2A"/><path d="M39.8708 42.7178H38.4473V44.1413H39.8708V42.7178Z" fill="#623B2A"/><path d="M45.5651 42.7178H44.1416V44.1413H45.5651V42.7178Z" fill="#623B2A"/><path d="M46.989 42.7178H45.5654V44.1413H46.989V42.7178Z" fill="#623B2A"/><path d="M1.43526 44.1416H0.0117188V45.5651H1.43526V44.1416Z" fill="#623B2A"/><path d="M9.97628 44.1416H8.55273V45.5651H9.97628V44.1416Z" fill="#623B2A"/><path d="M15.6706 44.1416H14.2471V45.5651H15.6706V44.1416Z" fill="#623B2A"/><path d="M18.5183 44.1416H17.0947V45.5651H18.5183V44.1416Z" fill="#623B2A"/><path d="M19.9411 44.1416H18.5176V45.5651H19.9411V44.1416Z" fill="#623B2A"/><path d="M21.365 44.1416H19.9414V45.5651H21.365V44.1416Z" fill="#623B2A"/><path d="M22.7888 44.1416H21.3652V45.5651H22.7888V44.1416Z" fill="#623B2A"/><path d="M24.2116 44.1416H22.7881V45.5651H24.2116V44.1416Z" fill="#623B2A"/><path d="M31.3298 44.1416H29.9062V45.5651H31.3298V44.1416Z" fill="#623B2A"/><path d="M34.1765 44.1416H32.7529V45.5651H34.1765V44.1416Z" fill="#623B2A"/><path d="M35.6003 44.1416H34.1768V45.5651H35.6003V44.1416Z" fill="#623B2A"/><path d="M38.447 44.1416H37.0234V45.5651H38.447V44.1416Z" fill="#623B2A"/><path d="M41.2946 44.1416H39.8711V45.5651H41.2946V44.1416Z" fill="#623B2A"/><path d="M42.7185 44.1416H41.2949V45.5651H42.7185V44.1416Z" fill="#623B2A"/><path d="M44.1413 44.1416H42.7178V45.5651H44.1413V44.1416Z" fill="#623B2A"/><path d="M1.43526 45.5654H0.0117188V46.989H1.43526V45.5654Z" fill="#623B2A"/><path d="M2.85909 45.5654H1.43555V46.989H2.85909V45.5654Z" fill="#623B2A"/><path d="M4.28194 45.5654H2.8584V46.989H4.28194V45.5654Z" fill="#623B2A"/><path d="M5.70577 45.5654H4.28223V46.989H5.70577V45.5654Z" fill="#623B2A"/><path d="M7.1296 45.5654H5.70605V46.989H7.1296V45.5654Z" fill="#623B2A"/><path d="M8.55343 45.5654H7.12988V46.989H8.55343V45.5654Z" fill="#623B2A"/><path d="M9.97628 45.5654H8.55273V46.989H9.97628V45.5654Z" fill="#623B2A"/><path d="M14.2468 45.5654H12.8232V46.989H14.2468V45.5654Z" fill="#623B2A"/><path d="M17.0944 45.5654H15.6709V46.989H17.0944V45.5654Z" fill="#623B2A"/><path d="M18.5183 45.5654H17.0947V46.989H18.5183V45.5654Z" fill="#623B2A"/><path d="M19.9411 45.5654H18.5176V46.989H19.9411V45.5654Z" fill="#623B2A"/><path d="M24.2116 45.5654H22.7881V46.989H24.2116V45.5654Z" fill="#623B2A"/><path d="M25.6355 45.5654H24.2119V46.989H25.6355V45.5654Z" fill="#623B2A"/><path d="M31.3298 45.5654H29.9062V46.989H31.3298V45.5654Z" fill="#623B2A"/><path d="M32.7536 45.5654H31.3301V46.989H32.7536V45.5654Z" fill="#623B2A"/><path d="M37.0241 45.5654H35.6006V46.989H37.0241V45.5654Z" fill="#623B2A"/><path d="M38.447 45.5654H37.0234V46.989H38.447V45.5654Z" fill="#623B2A"/><path d="M41.2946 45.5654H39.8711V46.989H41.2946V45.5654Z" fill="#623B2A"/><path d="M42.7185 45.5654H41.2949V46.989H42.7185V45.5654Z" fill="#623B2A"/><path d="M44.1413 45.5654H42.7178V46.989H44.1413V45.5654Z" fill="#623B2A"/></g><defs><clipPath id="clip0_2003_46163"><rect width="46.977" height="46.977" fill="white" transform="translate(0.0117188 0.0117188)"/></clipPath></defs></svg>