<?xml version="1.0" encoding="utf-8"?><svg viewBox="0 0 30 24" xmlns="http://www.w3.org/2000/svg" xmlns:xlink="http://www.w3.org/1999/xlink"><style>:root>svg{display:none}:root>svg:target{display:block}</style><svg fill="none" viewBox="0 0 16 16" id="arrow-long" xmlns="http://www.w3.org/2000/svg"><path d="M10.781 7.333 7.205 3.757l.943-.943L13.333 8l-5.185 5.185-.943-.943 3.576-3.576H2.667V7.333h8.114Z" fill="currentColor"/></svg><svg fill="none" viewBox="0 0 10 17" id="classmates" xmlns="http://www.w3.org/2000/svg"><g clip-path="url(#ba)" fill="currentColor"><path d="M5.099 8.734c2.412 0 4.378-1.961 4.378-4.367C9.477 1.961 7.511 0 5.1 0 2.66 0 .694 1.961.694 4.367c0 2.406 1.967 4.367 4.405 4.367Zm0-6.171c.996 0 1.809.81 1.809 1.804a1.81 1.81 0 0 1-1.81 1.804A1.81 1.81 0 0 1 3.29 4.367c-.026-.994.786-1.804 1.809-1.804ZM6.856 12.316a8.295 8.295 0 0 0 2.543-1.046 1.272 1.272 0 0 0 .393-1.778A1.28 1.28 0 0 0 8.009 9.1a5.58 5.58 0 0 1-5.899 0 1.308 1.308 0 0 0-1.782.392 1.302 1.302 0 0 0 .445 1.752 8.298 8.298 0 0 0 2.543 1.046L.878 14.722a1.276 1.276 0 0 0 0 1.804c.262.262.577.366.918.366.34 0 .655-.13.917-.366l2.412-2.405 2.412 2.405c.498.497 1.311.497 1.81 0a1.276 1.276 0 0 0 0-1.804l-2.491-2.406Z"/></g><defs><clipPath id="ba"><path transform="translate(.158)" d="M0 0h9.842v17H0z"/></clipPath></defs></svg><svg fill="none" viewBox="0 0 24 24" id="close" xmlns="http://www.w3.org/2000/svg"><g clip-path="url(#ca)"><path d="m12 10.586 4.95-4.95 1.415 1.414-4.95 4.95 4.95 4.95-1.414 1.414-4.95-4.95-4.95 4.95-1.414-1.414 4.95-4.95-4.95-4.95L7.05 5.636l4.95 4.95Z" fill="currentColor"/></g><defs><clipPath id="ca"><path d="M0 0h24v24H0z"/></clipPath></defs></svg><svg fill="none" viewBox="0 0 17 17" id="contacts-book" xmlns="http://www.w3.org/2000/svg"><g clip-path="url(#da)"><path d="M2.5 1.833h10.67c.735 0 1.33.599 1.33 1.327v10.68c0 .733-.595 1.327-1.33 1.327H2.5V1.833Zm2.667 1.334H3.833v10.666h1.334V3.167ZM6.5 13.833h6.667V3.167H6.5v10.666Zm1.333-2.666a2 2 0 0 1 4 0h-4Zm2-2.667a1.333 1.333 0 1 1 0-2.667 1.333 1.333 0 0 1 0 2.667Zm5.334-4H16.5v2.667h-1.333V4.5Zm0 4H16.5v2.667h-1.333V8.5Z" fill="currentColor"/></g><defs><clipPath id="da"><path fill="currentColor" transform="translate(.5 .5)" d="M0 0h16v16H0z"/></clipPath></defs></svg><svg fill="none" viewBox="0 0 30 12" id="glasses" xmlns="http://www.w3.org/2000/svg"><g clip-path="url(#ea)"><path d="M11.36 2.975a.12.12 0 0 0-.1-.12 1.78 1.78 0 0 0-.77-.27.14.14 0 0 1-.09 0 .66.66 0 0 0-.19-.09c-.33-.07-.66-.13-1-.17-.34-.04-1-.1-1.44-.11-.44-.01-1.14 0-1.71 0-.57 0-1.19.08-1.79.14a2.9 2.9 0 0 0-1 .3.78.78 0 0 0-.38.23c-.08.13-.22.18-.3.3a1.07 1.07 0 0 0-.2.38 3.8 3.8 0 0 0-.11.89c-.01.507.01 1.015.06 1.52a9.86 9.86 0 0 0 .47 2 4 4 0 0 0 .28.67c.152.327.386.61.68.82.12.07.2.21.32.29.189.129.39.24.6.33.273.11.554.2.84.27.33.071.664.118 1 .14a8.66 8.66 0 0 0 1.61 0 5.222 5.222 0 0 0 1.29-.34c.36-.16.7-.36 1.06-.53a1.31 1.31 0 0 0 .62-.65c.21-.45.41-.9.6-1.36.146-.36.27-.727.37-1.1.093-.282.167-.569.22-.86.067-.374.104-.751.11-1.13a1 1 0 0 0-.31-.86 1.18 1.18 0 0 0-.74-.69Zm16.23 1.53v-.48a1.63 1.63 0 0 0-.59-1.12 2.45 2.45 0 0 0-1-.48 2.64 2.64 0 0 0-.69-.14c-.55-.05-1.1-.1-1.64-.13-.54-.03-1.17 0-1.75 0-.412 0-.823.03-1.23.09-.363.037-.723.093-1.08.17a5.63 5.63 0 0 0-.9.31 3.25 3.25 0 0 0-.77.49 1.82 1.82 0 0 0-.54.82 3.21 3.21 0 0 0 0 1.51c.09.456.208.907.35 1.35.11.36.25.71.39 1.06.073.197.157.39.25.58.117.274.283.525.49.74.291.278.63.501 1 .66.66.33 1.382.52 2.12.56.566.04 1.134.04 1.7 0 .339-.04.674-.11 1-.21.521-.13 1-.392 1.39-.76a2.87 2.87 0 0 0 .82-1.21c.15-.48.28-1 .39-1.45.084-.38.147-.764.19-1.15.05-.39.08-.78.12-1.18m-11.1 1.8v-.17c-.21-.48-.42-1-.64-1.45 0-.13-.14-.25-.18-.38-.04-.13-.25-.23-.42-.24a3.859 3.859 0 0 0-.68 0 .42.42 0 0 0-.46.28c-.06.22-.23.39-.3.6-.077.226-.17.447-.28.66l-.27.66c-.09.22-.19.43-.28.65-.26.627-.557 1.238-.89 1.83-.14.24-.3.468-.48.68a2.21 2.21 0 0 1-.4.28l-.14.12a3.31 3.31 0 0 1-1.21.65c-.22.08-.43.17-.66.23a7.42 7.42 0 0 1-.82.16 9.81 9.81 0 0 1-1.21.08c-.46 0-.92-.09-1.38-.13a2.415 2.415 0 0 1-.47-.07c-.43-.13-.85-.26-1.26-.42a3.319 3.319 0 0 1-1-.61 3.27 3.27 0 0 1-.35-.48 4.84 4.84 0 0 1-.36-.72 5 5 0 0 1-.31-.66c-.11-.26-.2-.53-.3-.79-.1-.26-.2-.54-.32-.81s-.26-.75-.44-1.12c-.18-.37-.2-.47-.31-.7l-.13-.1a1.61 1.61 0 0 0-.44-.39.18.18 0 0 1-.12-.13v-1.4a5 5 0 0 1 .06-.54.18.18 0 0 1 .12-.12l1.2-.25c.26-.06.51-.1.77-.14.26-.04.54-.08.85-.11l1.31-.17c.295.01.59-.01.88-.06.57-.03 1.14-.08 1.71-.08h1l.93.07 1 .12a5.49 5.49 0 0 1 1 .16c.32.06.77.12 1.16.2l1.42.27c.37.07.75.15 1.12.19.26.03.52.03.78 0 .5-.07 1-.17 1.51-.26l1.26-.23 1.14-.19.89-.13c.253-.04.513-.07.78-.09l1.88-.11h.63l1 .06 1.06.08c.352.02.703.06 1.05.12l1.59.24c.5.09 1 .21 1.51.31a.14.14 0 0 1 .12.16l.06 1.36v.57a.25.25 0 0 1-.08.12c-.11.07-.23.11-.34.18-.11.07-.07.09-.11.13l-.06.06c-.13 0-.18.1-.22.22-.12.34-.27.68-.4 1-.13.32-.27.69-.4 1 0 .24-.17.41-.25.62-.08.21-.18.43-.28.64-.1.21-.22.55-.36.81a3 3 0 0 1-.88 1.32 1.589 1.589 0 0 1-.64.34c-.183.069-.36.152-.53.25a5.107 5.107 0 0 1-.87.25c-.607.139-1.227.21-1.85.21a7.902 7.902 0 0 1-2.21-.34 7.262 7.262 0 0 1-1.66-.71 2.56 2.56 0 0 1-.73-.77l-.25-.33c-.07-.12-.11-.27-.17-.4l-.51-1c-.16-.32-.25-.59-.37-.89l-.11-.15" fill="currentColor"/></g><defs><clipPath id="ea"><path transform="translate(0 .975)" d="M0 0h29.79v10.05H0z"/></clipPath></defs></svg><svg fill="none" viewBox="0 0 16 16" id="search" xmlns="http://www.w3.org/2000/svg"><g clip-path="url(#fa)"><path d="m12.02 11.078 2.856 2.855-.944.943-2.854-2.855a6.002 6.002 0 0 1-9.745-4.687c0-3.313 2.688-6 6-6a6.002 6.002 0 0 1 4.687 9.744Zm-1.337-.494a4.665 4.665 0 0 0-3.35-7.917 4.665 4.665 0 0 0-4.667 4.667 4.665 4.665 0 0 0 7.917 3.35l.1-.1Z" fill="currentColor"/></g><defs><clipPath id="fa"><path d="M0 0h16v16H0z"/></clipPath></defs></svg><svg fill="none" viewBox="0 0 16 16" id="sound" xmlns="http://www.w3.org/2000/svg"><g clip-path="url(#ga)"><path d="M14 12v2h-1.334v-2h-1.333v-2h4v2h-1.334ZM3.332 12v2H1.999v-2H.666v-2h4v2H3.333Zm4-8V2h1.333v2h1.333v2H6V4h1.334Zm0 3.333h1.333V14H7.333V7.333ZM1.999 8.667V2h1.334v6.667H1.999Zm10.667 0V2h1.333v6.667h-1.333Z" fill="currentColor"/></g><defs><clipPath id="ga"><path fill="currentColor" d="M0 0h16v16H0z"/></clipPath></defs></svg><svg fill="none" viewBox="0 0 17 15" id="telegram" xmlns="http://www.w3.org/2000/svg"><path d="m.715 7.167 3.724 1.41 1.41 4.63c.1.301.503.402.704.2l2.114-1.71a.487.487 0 0 1 .705 0l3.724 2.717c.302.202.604 0 .705-.301l2.717-13.086c.101-.302-.302-.604-.604-.503L.715 6.362c-.403.1-.403.704 0 .805Zm4.932.705 7.248-4.43c.1-.1.302.101.1.202L7.057 9.08c-.202.2-.302.503-.403.704l-.201 1.61c0 .202-.302.202-.403 0l-.805-2.717c0-.302.1-.705.402-.805Z" fill="currentColor"/></svg><svg fill="none" viewBox="0 0 16 17" id="user" xmlns="http://www.w3.org/2000/svg"><g clip-path="url(#ia)"><path d="M9.333 10.003v1.393A3.998 3.998 0 0 0 4 15.168H2.667a5.333 5.333 0 0 1 6.666-5.166ZM8 9.168c-2.21 0-4-1.79-4-4s1.79-4 4-4 4 1.79 4 4-1.79 4-4 4Zm0-1.333A2.666 2.666 0 1 0 8 2.5a2.666 2.666 0 1 0 0 5.334Zm4.945 4h2.39v1.333h-2.39l1.22 1.219-.943.943-2.829-2.829 2.829-2.828.943.943-1.22 1.219Z" fill="currentColor"/></g><defs><clipPath id="ia"><path fill="currentColor" transform="translate(0 .5)" d="M0 0h16v16H0z"/></clipPath></defs></svg><svg fill="none" viewBox="0 0 19 11" id="vk" xmlns="http://www.w3.org/2000/svg"><path fill-rule="evenodd" clip-rule="evenodd" d="M18.357 1.239c.132-.389 0-.66-.617-.66h-2.056c-.529 0-.763.245-.896.517 0 0-1.042 2.253-2.526 3.704-.484.427-.69.557-.954.557-.132 0-.323-.13-.323-.518v-3.6c0-.467-.147-.66-.588-.66h-3.23c-.324 0-.53.22-.53.414 0 .44.735.543.823 1.76v2.668c0 .583-.117.687-.382.687-.69 0-2.393-2.253-3.392-4.844C3.48.785 3.29.578 2.761.578H.705C.117.578 0 .824 0 1.096c0 .48.69 2.862 3.245 6.009 1.704 2.15 4.098 3.315 6.271 3.315 1.307 0 1.469-.259 1.469-.7V8.09c0-.519.117-.622.543-.622.308 0 .822.13 2.041 1.165 1.395 1.23 1.63 1.787 2.409 1.787h2.056c.587 0 .88-.259.705-.764-.191-.505-.852-1.243-1.733-2.124-.485-.505-1.204-1.036-1.41-1.308-.308-.35-.22-.505 0-.803 0-.012 2.511-3.12 2.76-4.182Z" fill="currentColor"/></svg></svg>